<svg width="414" height="414" viewBox="0 0 414 414" fill="none" xmlns="http://www.w3.org/2000/svg">
<path d="M207.002 407.144C317.539 407.144 407.146 317.536 407.146 207C407.146 96.4636 317.539 6.8562 207.002 6.8562C96.4658 6.8562 6.8584 96.4636 6.8584 207C6.8584 317.536 96.4658 407.144 207.002 407.144Z" fill="#FFF200"/>
<path d="M359.859 207H359.174C359.174 249.024 342.145 287.064 314.601 314.608C287.063 342.146 249.023 359.181 206.993 359.181C164.97 359.181 126.93 342.152 99.3857 314.608C71.848 287.07 54.813 249.03 54.813 207C54.813 164.977 71.8418 126.937 99.3857 99.3927C126.923 71.855 164.964 54.82 206.993 54.82C249.017 54.82 287.057 71.8487 314.601 99.3927C342.139 126.93 359.174 164.971 359.174 207H360.539C360.539 122.199 291.794 53.4612 207 53.4612C122.199 53.4612 53.4604 122.206 53.4604 207C53.4604 291.801 122.205 360.539 207 360.539C291.8 360.539 360.539 291.795 360.539 207H359.859Z" fill="#F27125"/>
<path d="M363.781 207H363.083C363.083 250.102 345.612 289.115 317.37 317.363C289.122 345.611 250.109 363.076 207.007 363.076C163.905 363.076 124.886 345.605 96.6444 317.363C68.3962 289.115 50.9311 250.102 50.9311 207C50.9311 163.898 68.4024 124.88 96.6444 96.6375C124.893 68.3892 163.905 50.9242 207.007 50.9242C250.109 50.9242 289.122 68.3955 317.37 96.6375C345.618 124.886 363.083 163.898 363.083 207H364.479C364.479 120.024 293.977 49.5217 207.001 49.5217C120.025 49.5217 49.5225 120.024 49.5225 207C49.5225 293.97 120.025 364.479 207.001 364.479C293.971 364.479 364.479 293.976 364.479 207H363.781Z" fill="#F27125"/>
<path d="M367.801 207H367.085C367.085 251.205 349.171 291.221 320.2 320.193C291.228 349.164 251.212 367.078 207.007 367.078C162.802 367.078 122.786 349.164 93.8146 320.193C64.8433 291.221 46.9295 251.205 46.9295 207C46.9295 162.795 64.8433 122.779 93.8146 93.8076C122.786 64.8363 162.802 46.9225 207.007 46.9225C251.212 46.9225 291.228 64.8363 320.2 93.8076C349.171 122.779 367.085 162.795 367.085 207H368.518C368.518 117.799 296.208 45.4827 207.001 45.4827C117.799 45.4827 45.4834 117.792 45.4834 207C45.4834 296.202 117.793 368.518 207.001 368.518C296.202 368.518 368.518 296.202 368.518 207H367.801Z" fill="#F27125"/>
<path d="M371.921 207H371.185C371.185 252.339 352.81 293.384 323.097 323.097C293.384 352.81 252.339 371.185 207 371.185C161.661 371.185 120.616 352.81 90.9029 323.097C61.1898 293.384 42.8147 252.339 42.8147 207C42.8147 161.661 61.1898 120.616 90.9029 90.9031C120.616 61.1901 161.661 42.815 207 42.815C252.339 42.815 293.384 61.1901 323.097 90.9031C352.81 120.616 371.185 161.661 371.185 207H372.656C372.656 115.511 298.489 41.344 207 41.344C115.511 41.344 41.3438 115.511 41.3438 207C41.3438 298.489 115.511 372.656 207 372.656C298.489 372.656 372.656 298.489 372.656 207H371.921Z" fill="#F27125"/>
<path d="M376.154 207H375.4C375.4 253.505 356.551 295.597 326.077 326.07C295.604 356.544 253.506 375.393 207.007 375.393C160.502 375.393 118.41 356.544 87.9369 326.07C57.4634 295.597 38.6146 253.499 38.6146 207C38.6146 160.495 57.4634 118.403 87.9369 87.9237C118.41 57.4502 160.508 38.6014 207.007 38.6014C253.512 38.6014 295.604 57.4502 326.077 87.9237C356.551 118.397 375.4 160.495 375.4 207H376.908C376.908 113.161 300.84 37.093 207.001 37.093C113.162 37.093 37.0938 113.161 37.0938 207C37.0938 300.839 113.162 376.907 207.001 376.907C300.84 376.907 376.908 300.839 376.908 207H376.154Z" fill="#F27125"/>
<path d="M380.487 207H379.714C379.714 254.696 360.385 297.872 329.126 329.125C297.867 360.383 254.697 379.712 207.002 379.712C159.306 379.712 116.13 360.383 84.8773 329.125C53.6185 297.866 34.2897 254.696 34.2897 207C34.2897 159.305 53.6185 116.128 84.8773 84.8757C116.136 53.6169 159.306 34.2881 207.002 34.2881C254.697 34.2881 297.874 53.6169 329.126 84.8757C360.385 116.135 379.714 159.305 379.714 207H381.26C381.26 110.755 303.24 32.7361 206.996 32.7361C110.751 32.7361 32.7314 110.755 32.7314 207C32.7314 303.245 110.751 381.258 206.996 381.264C303.24 381.264 381.253 303.245 381.26 207H380.487Z" fill="#F27125"/>
<path d="M384.936 207H384.145C384.145 255.917 364.317 300.197 332.261 332.26C300.204 364.316 255.924 384.144 207.001 384.144C158.084 384.144 113.804 364.316 81.7413 332.26C49.6846 300.203 29.8572 255.923 29.8572 207C29.8572 158.083 49.6846 113.803 81.7413 81.7403C113.798 49.6837 158.078 29.8563 207.001 29.8563C255.918 29.8563 300.198 49.6837 332.261 81.7403C364.317 113.797 384.145 158.077 384.145 207H385.734C385.734 108.287 305.714 28.2731 207.007 28.2668C108.294 28.2668 28.2803 108.287 28.2803 207C28.2803 305.707 108.3 385.727 207.007 385.727C305.72 385.727 385.734 305.707 385.734 207H384.943H384.936Z" fill="#F27125"/>
<path d="M389.498 207H388.681C388.681 257.176 368.349 302.591 335.47 335.47C302.59 368.349 257.176 388.682 207 388.682C156.824 388.682 111.41 368.349 78.5302 335.47C45.6508 302.591 25.3185 257.176 25.3185 207C25.3185 156.824 45.6508 111.41 78.5302 78.5305C111.41 45.6511 156.824 25.3189 207 25.3189C257.176 25.3189 302.59 45.6511 335.47 78.5305C368.349 111.41 388.681 156.824 388.681 207H390.308C390.308 105.757 308.237 23.6858 206.994 23.6858C105.75 23.6858 23.6792 105.757 23.6792 207C23.6792 308.244 105.75 390.315 206.994 390.315C308.237 390.315 390.308 308.244 390.308 207H389.492H389.498Z" fill="#F27125"/>
<path d="M394.179 207H393.343C393.343 258.46 372.488 305.04 338.767 338.761C305.046 372.482 258.46 393.338 207.006 393.338C155.546 393.338 108.966 372.482 75.2388 338.761C41.5179 305.034 20.662 258.454 20.662 207C20.662 155.54 41.5179 108.96 75.2388 75.233C108.96 41.5121 155.546 20.6563 207.006 20.6563C258.466 20.6563 305.046 41.5121 338.767 75.233C372.488 108.96 393.343 155.54 393.343 207H395.014C395.014 103.163 310.836 18.9858 207 18.9858C103.163 18.9858 18.9854 103.163 18.9854 207C18.9854 310.837 103.163 395.014 207 395.014C310.836 395.014 395.014 310.837 395.014 207H394.179Z" fill="#F27125"/>
<path d="M398.979 207H398.125C398.125 259.782 376.733 307.552 342.146 342.139C307.558 376.726 259.782 398.118 207.007 398.118C154.225 398.118 106.455 376.726 71.8613 342.139C37.2741 307.552 15.8822 259.775 15.8822 207C15.8822 154.218 37.2741 106.448 71.8613 71.8547C106.449 37.2675 154.225 15.8756 207.007 15.8756C259.788 15.8756 307.558 37.2675 342.146 71.8547C376.733 106.442 398.125 154.218 398.125 207H399.839C399.839 100.502 313.505 14.1677 207.007 14.1677C100.509 14.1677 14.1743 100.502 14.1743 207C14.1743 313.498 100.509 399.832 207.007 399.832C313.505 399.832 399.839 313.498 399.839 207H398.985H398.979Z" fill="#F27125"/>
<path d="M310.5 310.5C367.661 253.339 367.661 160.661 310.5 103.5C253.339 46.3385 160.661 46.3385 103.5 103.5C46.3385 160.661 46.3385 253.339 103.5 310.5C160.661 367.661 253.339 367.661 310.5 310.5Z" fill="white"/>
<path fill-rule="evenodd" clip-rule="evenodd" d="M161.774 190.682C159.536 192.558 158.377 195.512 156.987 198.261C156.588 199.04 156.208 200.144 155.416 200.443C154.998 199.445 155.759 198.486 155.977 197.532C156.538 194.939 156.818 191.268 157.872 187.808C158.869 184.567 159.997 181.837 161.618 179.082C162.254 177.966 164.685 174.9 165.071 174.482C156.694 176.252 151.701 184.692 150.641 185.066C150.093 183.931 151.184 182.697 151.788 181.631C152.767 179.849 153.646 177.754 155.366 176.551C158.171 172.151 161.63 169.109 166.486 166.554C165.034 166.36 161.78 167.046 161.157 165.725C165.744 164.684 171.017 164.222 175.356 162.01C176.11 161.623 176.596 160.688 177.643 161.012C175.399 163.761 172.133 165.656 167.433 166.323C165.04 169.066 160.795 171.503 158.744 174.993C161.1 173.971 163.625 172.294 166.872 171.309C169.54 170.487 172.501 170.219 175.006 169.358C175.393 169.209 175.705 169.059 176.035 168.448C176.777 170.736 170.699 172.762 169.914 173.447C164.086 178.253 159.293 185.621 157.591 194.048C159.056 192.826 160.097 190.196 161.755 188.469C162.846 187.291 164.392 185.92 166.006 186.032C163.488 190.214 161.275 195.176 160.708 200.948C160.072 207.405 162.173 214.318 162.522 221.211C162.129 220.925 162.21 219.977 161.824 220.164C159.729 211.799 157.866 198.76 161.643 191C161.674 190.875 161.799 190.819 161.774 190.669V190.682Z" fill="url(#paint0_radial_1462_7382)"/>
<path fill-rule="evenodd" clip-rule="evenodd" d="M159.506 166.965C150.673 166.815 142.352 167.75 134.062 169.558C132.055 169.969 129.687 170.624 127.511 171.203C126.121 171.577 124.644 172.226 123.485 172.656C121.048 173.547 118.261 174.912 115.718 175.205C114.877 175.311 113.462 175.66 112.839 174.968C112.789 174.332 113.624 174.451 114.229 174.382C115.992 172.506 118.984 172.07 121.471 171.378C122.325 171.154 123.086 170.58 123.94 170.381C124.139 170.337 124.021 170.686 124.133 170.699C124.445 170.699 125.479 170.225 126.121 170.044C127.324 169.726 130.079 168.928 130.329 168.897C139.865 167.071 149.433 165.837 159.499 166.965H159.506Z" fill="url(#paint1_radial_1462_7382)"/>
<path fill-rule="evenodd" clip-rule="evenodd" d="M95.6052 176.707C95.2873 177.474 94.3399 177.686 93.648 178.16C93.5857 177.941 93.3488 177.916 93.3052 177.686C93.6293 176.639 94.6328 176.626 95.5989 176.707H95.6052Z" fill="url(#paint2_radial_1462_7382)"/>
<path fill-rule="evenodd" clip-rule="evenodd" d="M111.319 175.903C111.188 176.67 110.209 176.707 110.01 177.443C109.567 177.511 108.383 177.387 107.616 177.312C107.597 177.087 107.597 176.863 107.423 176.863C108.121 175.66 110.203 175.193 111.319 175.903Z" fill="url(#paint3_radial_1462_7382)"/>
<path fill-rule="evenodd" clip-rule="evenodd" d="M106.83 177.536C107.01 178.21 106.368 178.21 106.119 178.54C106.188 178.783 106.624 178.64 106.493 179.145C105.122 179.319 103.32 179.818 102.921 178.34C103.769 177.667 105.564 176.533 106.823 177.536H106.83Z" fill="url(#paint4_radial_1462_7382)"/>
<path fill-rule="evenodd" clip-rule="evenodd" d="M101.182 180.391C100.914 181.307 100.123 180.852 99.5244 181.494C99.5244 181.014 99.1255 181.039 99.1255 180.572C99.5556 180.248 100.783 179.855 101.189 180.397L101.182 180.391Z" fill="url(#paint5_radial_1462_7382)"/>
<path fill-rule="evenodd" clip-rule="evenodd" d="M116.51 180.715C117.352 180.74 118.118 180.784 118.474 181.351C116.728 181.488 115.8 182.323 114.603 182.934C113.955 182.622 113.194 182.417 113.057 181.494C114.298 181.27 115.762 181.413 116.404 181.37C116.728 181.307 116.124 180.971 116.51 180.715Z" fill="url(#paint6_radial_1462_7382)"/>
<path fill-rule="evenodd" clip-rule="evenodd" d="M112.659 182.473C112.298 183.24 111.487 183.626 111.076 184.374C110.01 184.118 108.782 184.324 108.383 182.965C110.01 182.791 110.926 182.336 112.653 182.467L112.659 182.473Z" fill="url(#paint7_radial_1462_7382)"/>
<path fill-rule="evenodd" clip-rule="evenodd" d="M153.236 191.23C150.73 190.832 148.212 189.959 145.737 189.155C140.695 187.547 135.926 186.5 130.31 185.801C127.518 185.452 124.545 184.648 121.609 184.761C120.5 184.798 119.06 185.677 117.913 184.43C117.894 184.013 117.832 183.601 117.819 183.171C117.95 183.115 117.95 182.997 118.119 182.972C131.457 182.859 143.02 186.736 153.236 191.237V191.23Z" fill="url(#paint8_radial_1462_7382)"/>
<path fill-rule="evenodd" clip-rule="evenodd" d="M156.882 228.068C155.723 218.967 155.536 206.208 150.961 198.741C150.898 198.504 151.098 198.461 151.092 198.267C152.881 197.787 154.9 202.375 155.424 204.444C157.269 211.687 157.867 221.772 156.882 228.068Z" fill="url(#paint9_radial_1462_7382)"/>
<path fill-rule="evenodd" clip-rule="evenodd" d="M279.984 138.567C263.835 132.97 246.831 127.447 224.597 132.185C222.266 132.677 215.522 135.532 214.73 135.345C215.69 133.998 231.597 122.879 258.723 129.791C265.673 127.803 270.348 126.525 275.684 122.991C262.476 126.444 249.648 120.572 236.459 120.485C229.229 120.441 221.867 120.186 214.911 121.944C195.327 126.861 190.714 135.357 188.284 137.221C187.947 136.242 194.729 121.937 220.777 117.78C224.934 117.144 229.659 116.914 233.006 115.343C236.584 113.679 240.76 112.226 243.085 110.057C236.702 111.678 227.147 112.064 220.889 113.479C224.604 110.905 231.204 111.678 233.685 108.131C229.783 110.369 224.498 110.475 220.334 110.487C187.311 110.637 175.281 133.014 171.417 135.569C172.701 133.462 181.633 115.069 204.882 110.487C206.578 109.091 208.728 107.664 209.607 105.812C204.595 111.167 188.072 112.345 173.081 120.934C171.373 121.9 168.331 124.424 167.727 125.665C167.665 126.338 166.96 127.316 166.356 128.17C165.745 129.024 165.184 129.754 164.635 130.695C163.632 132.477 163.04 134.584 161.556 135.899C164.71 120.99 178.211 114.682 193.033 110.774C206.578 107.445 217.697 97.6409 217.697 97.6409C213.608 104.734 208.148 109.583 208.148 109.583C219.711 107.714 232.158 108.729 240.672 101.973C239.37 106.161 236.658 107.813 233.685 110.194C238.341 109.396 248.308 107.632 252.858 103.02C251.393 107.04 247.741 110.4 243.932 112.7C240.76 114.62 237.512 115.829 233.81 117.362C246.793 117.094 264.639 121.189 270.23 120.566C274.132 120.136 278.806 119.45 282.284 117.655C282.284 117.655 283.681 116.982 286.093 114.688C286.093 114.688 280.153 127.578 262.806 130.907C265.337 131.293 274.848 134.154 276.513 134.709C279.324 135.619 284.31 138.168 294.115 137.539C303.452 136.996 307.715 133.705 310.9 134.285C302.997 138.162 296.708 145.673 287.545 148.771C285.332 149.519 280.975 150.248 280.651 150.142C278.383 150.753 275.995 151.164 273.552 150.89C275.727 152.722 278.532 153.676 280.907 155.203C282.029 155.926 283.007 156.793 284.123 157.497C284.559 157.777 285.912 158.818 287.439 159.984C289.914 161.929 309.367 178.833 322.226 175.224C321.933 175.785 321.179 176.078 320.761 176.477C312.789 183.451 299.276 180.572 295.954 179.313C297.574 180.777 299.581 181.862 301.526 183.146C303.315 184.318 305.49 186.144 307.454 187.017C309.255 187.846 312.16 188.874 316.155 189.08C310.938 191.43 301.202 189.429 295.972 187.272C305.534 200.917 311.43 219.273 324.04 230.199C324.04 230.199 324.775 230.76 326.047 231.153C325.068 231.67 323.678 231.153 322.363 230.985C318.38 230.468 314.354 229.109 311.262 227.588C313.955 236.819 314.597 245.003 317.657 253.037C317.738 254.315 318.187 255.406 318.754 256.621C319.384 257.955 321.129 260.698 320.855 262.082C320.574 261.278 319.427 259.015 318.636 258.504C314.279 253.767 312.147 248.575 307.104 244.828C308.426 252.564 312.851 260.966 315.75 266.601C317.433 268.271 319.022 271.606 320.979 273.974C320.63 274.429 315.432 268.047 313.531 264.868C312.004 262.3 310.152 259.271 308.85 256.653C307.105 253.056 305.197 248.855 304.256 245.09C304.169 244.766 303.128 241.344 303.19 240.066C303.932 237.96 307.784 242.198 308.875 243.264C310.757 245.134 312.184 247.421 314.011 249.385C312.141 244.056 311.1 238.265 309.548 232.063C308.769 229.034 307.884 225.755 306.649 223.848C306.275 223.243 305.347 222.757 305.534 222.015C306.394 221.666 307.354 222.795 308.208 223.405C309.105 224.06 312.87 226.765 314.372 226.871C308.925 220.382 305.129 209.674 300.79 201.241C297.942 195.675 294.57 189.834 290.406 185.346C288.754 183.626 284.354 179.88 284.31 179.163C290.468 182.323 303.358 187.347 304.25 186.936C295.393 181.164 275.291 166.566 274.362 164.702C275.26 165.164 290.25 175.804 292.401 176.757C295.087 177.929 299.126 178.135 302.698 177.973C304.15 177.923 305.422 177.736 306.812 177.486C298.148 175.068 292.594 167.476 286.155 162.621C277.404 156.045 268.435 150.99 257.614 147.125C249.511 144.233 238.266 142.369 228.287 142.849C227.321 142.893 225.327 143.155 224.572 142.519C228.506 140.967 234.078 141.609 238.348 141.54C243.353 141.497 247.448 142.282 251.717 143.155C258.792 144.57 265.293 146.87 270.89 149.531C280.577 149.531 290.369 146.352 296.82 141.497C287.202 141.54 279.997 138.598 279.997 138.598L279.984 138.567Z" fill="url(#paint10_radial_1462_7382)"/>
<path fill-rule="evenodd" clip-rule="evenodd" d="M149.408 127.672C148.317 129.978 146.852 132.777 148.772 135.351C151.172 131.705 151.49 126.924 153.996 123.446C154.631 122.604 157.723 117.35 163.601 114.208C161.899 117.088 158.265 119.606 157.723 123.944C160.222 120.622 162.597 117.082 165.832 114.196C169.017 111.347 172.969 109.34 175.886 106.504C175.3 109.247 172.246 111.098 170.551 113.336C178.685 107.664 191.905 106.243 198.394 99.3987C198.107 101.163 196.68 102.116 195.676 103.294C194.754 104.391 194.218 105.75 193.245 106.847C190.87 109.584 187.168 111.834 183.291 113.392C181.184 114.24 178.629 114.875 177.226 115.156C181.365 112.407 187.006 111.31 191.201 106.847C186.632 108.349 182.007 110.419 177.906 111.921C177.7 112.102 177.993 112.17 177.625 112.438C171.679 114.794 168.113 119.189 164.542 123.546C164.155 120.392 166.761 116.297 168.332 113.822C162.915 118.21 157.929 125.017 157.037 133.238C155.467 131.555 155.971 127.379 156.345 124.861C155.841 125.621 154.207 135.046 150.518 139.203C148.361 141.584 136.449 142.158 128.359 148.827C126.539 150.323 125.884 154.505 124.158 155.702C122.999 156.525 121.309 156.3 119.583 156.413C114.902 156.724 110.071 159.043 106.3 161.636C103.489 162.022 101.233 161.218 97.7234 161.873C89.8449 163.369 81.8042 168.324 77.2977 172.955C78.1392 176.414 81.3056 177.137 83.6803 178.795C83.4622 179.12 83.2253 179.4 82.9386 179.662C84.3161 183.258 84.0917 188.725 87.4701 189.959C86.2047 186.917 84.3161 183.196 84.7026 179.693C86.2671 182.193 86.4915 186.425 88.9224 188.251C90.1814 189.205 92.4316 189.616 94.3825 188.924C94.7503 188.401 93.9088 188.214 94.0833 187.353C96.0842 189.255 97.6362 191.012 100.784 191.255C100.709 190.021 99.4999 189.473 99.7991 188.781C100.385 188.295 100.996 189.23 101.152 189.797C102.417 190.62 104.287 190.732 106.306 190.626C106.481 190.545 105.764 190.021 105.615 189.753C107.877 189.797 110.638 190.707 112.689 188.681C111.1 187.272 107.354 188.382 105.982 186.68C108.7 186.294 113.904 185.895 116.666 186.612C116.123 187.173 114.995 186.861 113.992 187.135C114.341 187.771 115.095 187.921 115.693 188.264C118.891 186.867 120.68 189.872 122.631 192.969C124.501 195.993 125.922 199.564 126.128 202.874C127.075 202.151 126.502 200.954 127.518 200.2C129.799 202.612 128.982 207.81 130.759 210.609C131.432 210.653 131.214 209.443 131.806 209.886C132.018 211.407 131.195 212.859 131.432 214.698C131.868 215.028 132.111 213.913 132.803 213.944C132.473 215.29 133.389 216.992 132.984 218.407C133.707 218.843 133.564 217.141 134.361 217.64C134.91 217.97 134.455 218.668 134.336 219.248C135.228 224.347 136.905 228.485 138.326 232.942C137.914 234.351 136.643 235.055 136.231 236.47C135.733 236.62 135.708 236.258 135.571 236.034C133.595 239.848 130.79 242.977 127.929 246.05C127.599 245.982 127.081 246.032 126.963 245.645C124.077 248.674 122.942 252.508 120.536 256.378C119.053 257.164 117.757 258.685 116.18 259.769C112.265 260.555 108.669 260.523 105.434 259.077C104.848 259.271 103.751 259.077 103.19 258.772C100.497 263.197 102.99 271.07 105.895 274.006C105.677 271.893 104.006 269.3 104.698 267.423C105.621 267.903 105.521 268.838 106.132 269.536C107.877 271.444 110.433 272.123 111.567 275.146C111.854 275.95 111.767 276.929 112.116 277.951C113.144 274.317 111.193 270.902 110.451 267.43C110.264 267.155 109.965 264.955 109.816 263.802C110.227 263.297 110.701 262.842 111.517 263.042C112.521 264.132 112.477 265.248 112.801 267.056C113.587 271.593 115.058 276.287 117.9 278.587C116.342 276.125 116.441 273.731 115.918 270.16C116.261 269.948 116.529 269.68 117.177 269.742C117.838 270.939 118.218 272.547 119.072 273.569C119.003 271.662 117.85 268.078 119.103 266.389C119.857 266.513 120.169 267.928 120.773 268.963C121.665 270.471 123.235 272.74 125.679 272.541C124.345 267.766 125.654 263.74 124.787 257.955C126.745 257.276 126.745 259.439 127.1 260.935C127.536 262.811 128.646 264.855 129.013 266.682C129.213 263.497 129.668 260.106 130.64 257.451C130.989 256.509 131.295 254.639 132.678 255.063C132.379 257.494 131.943 260.137 133.283 262.169C134.025 260.062 134.823 255.624 136.375 253.33C137.141 252.14 139.797 249.852 140.445 252.508C139.884 248.413 139.516 244.623 139.622 240.64C139.684 237.636 140.495 232.761 141.411 229.489C142.203 226.647 143.225 223.468 145.064 221.698C141.885 231.957 140.065 243.688 143.91 254.135C147.089 262.73 149.838 270.933 149.9 280.413C148.747 274.978 147.245 271.138 145.519 267.548C144.434 269.3 144.764 275.913 144.621 276.087C145.519 282.919 147.763 293.833 145.269 299.443C145.182 299.617 143.942 303.326 143 304.71C143.611 302.31 144.434 298.738 144.702 296.607C145.668 289.657 141.642 280.862 141.66 273.139C141.66 269.487 142.938 266.538 144.203 263.347C142.57 260.343 141.349 256.883 138.432 255.381C136.013 257.295 134.667 260.891 135.078 264.725C134.218 264.706 133.358 263.615 132.685 262.873C131.968 262.069 131.289 261.066 131.002 259.975C130.061 263.01 129.899 267.897 130.696 271.475C129.412 271.406 129.051 269.867 128.583 268.951C128.047 267.91 127.393 266.85 127.193 265.703C126.477 268.975 127.349 273.382 129.419 275.24C129.83 275.607 130.771 275.452 130.603 276.262C128.876 275.869 127.798 274.71 126.713 273.557C124.083 273.887 121.777 272.603 119.857 271.581C120.244 273.837 121.552 275.028 122.207 276.96C121.415 276.91 121.141 276.243 120.829 275.632C119.415 275.134 117.806 274.797 117.302 273.208C116.84 275.738 118.754 277.558 119.421 279.74C120.462 283.224 120.013 285.636 118.635 287.774C119.595 281.897 116.261 279.191 113.699 276.062C112.764 279.354 112.496 283.193 110.165 285.275C109.878 283.106 111.274 281.267 110.925 278.986C110.451 276.287 108.463 274.38 106.892 272.628C107.522 274.704 107.148 276.767 106.213 277.945C105.596 278.188 106.213 275.857 105.783 276.704C105.745 274.436 101.756 271.519 100.715 269.325C98.1224 263.871 101.195 259.682 101.7 254.265C101.258 251.641 98.5275 249.678 98.4527 245.608C98.3717 242.335 99.4251 237.96 101.681 236.576C100.634 240.447 102.828 249.51 106.257 251.348C104.91 246.649 104.929 238.645 107.173 233.721C107.59 232.855 108.22 231.851 108.899 231.365C108.588 234.257 108.775 239.537 110.445 242.398C113.094 239.855 117.32 234.731 117.906 234.451C118.299 234.039 121.584 230.941 123.017 230.53C123.254 225.475 122.949 221.716 121.665 215.82C121.228 215.508 121.073 215.926 120.536 215.739C119.645 211.426 117.906 208.153 116.117 204.962C115.675 205.205 115.731 205.916 114.758 205.685C114.235 201.584 112.402 198.953 110.925 195.974C109.292 196.697 108.164 194.715 107.223 193.574C100.977 196.223 101.513 207.916 104.125 213.906C104.168 215.864 105.459 216.337 105.39 217.627C104.449 217.272 103.57 216.15 102.778 215.14C101.326 213.271 100.267 211.338 98.9327 208.914C97.5178 206.352 96.2337 202.687 96.4706 198.448C96.2337 198.448 96.0405 199.128 95.8598 198.648C95.8099 199.302 95.1617 200.48 94.6319 201.153C93.915 204.183 94.8562 208.932 95.8598 212.211C94.2267 210.248 92.4565 207.056 91.3533 203.977C90.3934 201.353 90.7611 197.252 89.6392 194.864C85.3508 192.888 83.1381 190.015 82.3714 183.994C82.1533 182.348 82.5459 181.127 81.3928 179.924C80.6573 180.055 78.7812 180.821 78.3012 177.162C76.9237 175.567 73.8633 173.136 75.2096 170.562C75.9264 169.234 78.6752 167.663 80.7633 166.604C84.4844 164.759 87.1459 163.238 91.3907 162.06C93.2419 161.542 95.4484 160.682 97.6237 160.427C98.6709 160.314 99.6869 160.495 100.665 160.352C106.562 159.479 110.395 155.665 114.727 155.191C116.603 155.01 118.405 156.001 119.633 154.642C120.162 154.038 120.599 153.059 121.166 152.292C121.715 151.557 124.258 148.091 125.012 147.356C126.333 146.103 128.471 145.349 130.385 144.445C131.993 143.697 133.832 142.762 135.409 142.201C145.182 138.848 143.443 130.115 149.421 127.659L149.408 127.672ZM145.749 139.284C147.582 137.981 147.389 134.84 146.323 132.858C146.304 135.127 146.441 137.564 145.749 139.284ZM103.545 193.58C104.424 192.614 106.45 193.431 107.079 192.315C105.141 192.614 103.957 192.01 102.436 191.748C102.691 192.508 103.851 192.701 103.545 193.58ZM97.9852 201.515C98.4714 204.85 99.9674 208.322 101.226 209.855C99.4126 204.089 100.304 197.083 103.096 193.774C100.497 192.814 99.9549 193.007 97.6985 192.446C96.6077 194.185 94.2953 193.468 92.7931 194.603C90.6552 196.248 91.721 201.914 92.8367 204.656C92.924 202.606 93.6595 200 94.0148 197.707C93.2917 197.333 93.485 195.494 93.753 194.702C94.7378 194.578 94.7378 195.637 94.8812 196.522C95.9844 196.485 96.2275 196.161 96.9256 196.367C97.1936 195.363 97.0627 194.01 98.1473 193.711C98.0974 195.893 97.5115 198.436 97.9915 201.515H97.9852ZM107.266 192.315C107.871 192.701 109.348 192.938 109.928 193.855C112.103 191.567 114.079 193.537 115.612 195.126C116.304 194.79 116.741 194.229 117.763 194.16C118.112 194.44 117.781 194.908 117.7 195.288C117.944 195.114 118.467 195.164 118.617 194.889C117.426 192.215 114.216 191.717 110.906 192.028C110.607 192.091 111 192.278 110.775 192.359C109.884 191.816 108.594 191.991 107.266 192.321V192.315ZM119.558 246.586C119.845 245.807 122.562 238.726 129.032 234.189C129.736 232.574 131.949 231.465 132.205 229.925C131.681 229.919 131.881 230.449 131.27 230.337C131.638 229.863 130.64 229.907 130.266 229.794C125.934 231.558 122.78 235.105 119.901 237.654C120.53 235.018 122.787 233.827 124.077 232.207C118.249 234.675 114.69 240.31 111.492 245.508C112.882 248.201 114.085 251.124 116.547 252.595C117.545 250.307 119.003 247.983 119.558 246.593V246.586ZM109.174 254.141C110.682 254.895 112.427 254.34 113.904 253.592C111.056 249.697 107.902 244.679 107.173 237.729C105.752 242.678 106.755 250.307 109.174 254.141ZM105.047 252.558C102.573 249.765 101.426 245.377 100.285 241.02C99.3066 245.377 100.335 252.383 105.047 252.558ZM107.721 255.842C106.743 255.842 105.814 254.845 104.979 255.294C105.471 255.899 106.649 256.21 107.721 255.842Z" fill="url(#paint11_radial_1462_7382)"/>
<path fill-rule="evenodd" clip-rule="evenodd" d="M148.772 147.1C149.139 147.05 149.557 147.056 149.557 147.056C149.862 146.601 150.529 146.421 151.259 146.302C150.492 147.212 149.326 147.3 148.36 147.667C144.876 148.989 141.554 150.023 138.182 151.843C137.646 153.078 134.903 154.754 135.882 156.824C136.412 157.391 137.54 157.285 138.045 157.914C141.635 158.151 145.724 158.93 147.899 159.822C148.921 159.978 150.118 159.865 150.405 160.875C147.644 160.62 144.882 160.37 142.296 161.218C140.313 161.872 138.556 162.677 137.745 164.154C135.159 163.244 133.544 162.571 131.194 161.841C130.845 161.972 129.543 161.947 129.53 161.174C130.403 160.701 132.759 161.411 133.9 161.779C134.093 160.906 134.124 159.909 134.486 159.167C134.043 158.239 133.114 157.871 132.834 156.768C133.488 155.533 134.579 154.698 135.277 153.526C130.577 156.225 125.566 158.644 122.144 162.427C119.121 163.973 116.721 166.036 114.826 168.604C114.135 168.536 114.103 169.034 113.63 169.19C109.996 167.65 117.762 162.92 118.199 162.726C112.938 162.315 108.182 164.839 104.529 167.058C103.813 166.753 102.335 167.326 102.092 166.454C102.659 165.675 103.732 165.432 104.685 164.989C108.649 163.138 113.779 161.311 119.084 161.872C126.545 156.836 144.677 148.085 148.765 147.113L148.772 147.1ZM135.994 159.99C136.187 159.984 136.412 159.971 136.611 159.946C136.542 159.572 136.592 159.336 136.723 159.155C136.144 159.155 135.882 159.435 135.988 159.99H135.994ZM135.221 160.539C135.065 161.019 134.791 161.436 134.878 162.153C135.558 162.259 135.938 162.758 136.68 162.801C138.338 161.561 140.313 160.651 142.377 160.426C141.703 159.616 139.983 160.015 138.98 159.585C139.017 161.505 136.156 161.785 135.227 160.539H135.221Z" fill="url(#paint12_radial_1462_7382)"/>
<path fill-rule="evenodd" clip-rule="evenodd" d="M111.679 168.523C110.807 169.302 108.856 171.066 107.671 170.131C106.687 171.216 104.424 173.684 102.866 171.652C103.67 170.026 105.889 169.82 107.347 170.156C107.603 169.184 109.953 168.255 111.679 168.523Z" fill="url(#paint13_radial_1462_7382)"/>
<path fill-rule="evenodd" clip-rule="evenodd" d="M152.389 210.104C153.766 210.858 153.841 212.76 154.153 214.1C155.137 218.344 155.156 223.05 154.763 227.289C154.246 232.581 152.887 238.465 150.126 242.485C149.945 242.529 150.269 242.261 150.232 242.005C150.431 239.674 151.89 238.552 151.672 236.302C153.137 231.646 153.791 225.93 153.542 220.227C153.367 216.618 152.576 213.32 152.389 210.11V210.104Z" fill="url(#paint14_radial_1462_7382)"/>
<path fill-rule="evenodd" clip-rule="evenodd" d="M199.453 147.113C193.345 147.163 187.916 144.171 181.708 146.346C177.475 147.823 172.476 151.837 169.696 155.122C168.562 156.475 166.954 157.566 164.43 157.329C163.869 157.279 163.407 157.111 162.965 156.656C162.74 155.92 163.974 156.55 166.954 153.321C168.369 151.794 171.566 149.494 172.42 148.983C174.271 147.805 176.646 146.564 177.382 146.215C183.802 143.292 193.924 144.501 199.453 147.113Z" fill="url(#paint15_radial_1462_7382)"/>
<path fill-rule="evenodd" clip-rule="evenodd" d="M96.1592 165.812C96.34 165.837 96.2901 166.136 96.4896 166.117C95.3614 167.42 93.9402 168.442 93.4915 170.343C87.8069 170.43 86.9467 174.588 85.0394 177.891C83.5684 178.004 81.1251 176.732 80.8695 175.685C79.8535 171.465 89.6394 169.477 92.7373 168.978C93.0427 167.756 95.2804 167.046 96.153 165.818L96.1592 165.812Z" fill="url(#paint16_radial_1462_7382)"/>
<path fill-rule="evenodd" clip-rule="evenodd" d="M101.644 172.556C101.637 174.488 98.6206 175.991 96.707 174.532C97.8851 173.423 100.665 172.076 101.644 172.556Z" fill="url(#paint17_radial_1462_7382)"/>
<path fill-rule="evenodd" clip-rule="evenodd" d="M139.161 214.062C138.369 213.725 138.026 212.585 137.241 211.837C137.366 211.855 137.391 211.974 137.546 211.968C134.018 206.514 131.75 199.015 126.875 194.528C126.726 192.963 126.726 191.692 125.03 191.18C125.267 189.934 123.709 189.815 122.936 189.267C122.98 188.781 123.485 188.656 123.983 188.55C126.028 189.616 128.053 190.707 129.58 192.396C129.605 192.701 129.624 193.025 129.649 193.337C133.775 199.526 136.593 206.551 139.161 214.062Z" fill="url(#paint18_radial_1462_7382)"/>
<path d="M176.56 226.603H183.249L174.08 200.007V196.585C174.08 196.037 174.423 195.488 175.146 194.946L175.083 194.964C175.457 194.684 175.8 194.466 176.105 194.335C176.417 194.167 176.766 194.092 177.128 194.092H190.56V201.123L188.098 199.303H181.023L190.41 226.161V229.427C190.41 229.651 190.367 229.926 190.236 230.175C190.155 230.437 189.999 230.711 189.781 230.929C189.563 231.185 189.263 231.366 188.933 231.515C188.584 231.658 188.179 231.746 187.705 231.746H174.005V224.808L176.373 226.61H176.567L176.56 226.603Z" fill="#17488A"/>
<path d="M177.128 194.839C176.891 194.839 176.698 194.883 176.48 194.989C176.243 195.095 175.963 195.276 175.651 195.513C175.296 195.793 174.866 196.211 174.866 196.585V199.894C174.947 200.119 184.371 227.351 184.371 227.351H176.075C176.075 227.351 175.321 226.765 174.834 226.41V230.966H187.706C188.061 230.966 188.354 230.923 188.585 230.835C188.815 230.729 188.996 230.611 189.146 230.443C189.283 230.287 189.432 230.1 189.488 229.919C189.563 229.738 189.601 229.57 189.601 229.421V226.292C189.52 226.073 179.921 198.554 179.921 198.554H188.391C188.391 198.554 189.177 199.14 189.763 199.558V194.833H177.122L177.128 194.839Z" fill="url(#paint19_linear_1462_7382)"/>
<path d="M190.983 194.085H202.602L200.489 196.479V226.653H205.083V196.435L202.889 194.085H214.569L212.332 196.435V229.346L215.205 231.739H200.14C195.434 231.739 193.09 230.997 193.09 229.501V196.479L190.983 194.085Z" fill="#17488A"/>
<path d="M204.666 194.839C205.19 195.4 205.9 196.167 205.9 196.167V227.426H199.667V196.211C199.667 196.211 200.372 195.432 200.87 194.839H192.692C193.228 195.432 193.927 196.211 193.927 196.211V229.502C193.927 230.43 196.233 230.966 200.135 230.966H213.106C212.433 230.43 211.522 229.676 211.522 229.676V196.161C211.522 196.161 212.227 195.394 212.757 194.833H204.672L204.666 194.839Z" fill="url(#paint20_linear_1462_7382)"/>
<path d="M224.231 212.223V229.389L226.319 231.739H214.732L216.839 229.389V196.479L214.732 194.085H225.839C235.326 194.017 236.853 199.919 237.071 200.617C237.283 201.359 237.744 204.899 236.809 206.925C236.305 208.053 233.649 213.04 226.687 214.411L224.237 212.23L224.231 212.223ZM224.381 199.52V209.462H225.796C226.699 209.462 227.447 209.306 228.083 208.963C228.694 208.633 229.218 208.228 229.623 207.704C229.997 207.206 230.296 206.663 230.47 206.071C230.651 205.467 230.751 204.899 230.751 204.332C230.751 203.765 230.657 203.173 230.47 202.593C230.296 202.02 229.997 201.496 229.573 201.029C229.18 200.549 228.65 200.187 228.027 199.919C227.385 199.639 226.562 199.52 225.59 199.52H224.387H224.381Z" fill="#17488A"/>
<path d="M226.145 194.839H216.447C216.945 195.432 217.656 196.211 217.656 196.211V229.645C217.656 229.645 216.964 230.43 216.478 230.973H224.6C224.082 230.43 223.409 229.645 223.409 229.645V210.46C223.409 210.46 226.289 213.015 226.862 213.507C233.725 211.507 235.532 207.648 236.062 206.632C236.567 205.648 237.546 199.969 233.606 196.946C230.671 194.69 226.145 194.839 226.145 194.839ZM223.577 198.766H225.584C226.681 198.766 227.591 198.922 228.346 199.24C229.094 199.57 229.717 200.007 230.222 200.549C230.696 201.091 231.045 201.708 231.25 202.381C231.468 203.03 231.55 203.69 231.55 204.326C231.55 204.962 231.468 205.604 231.269 206.277C231.038 206.95 230.708 207.599 230.272 208.135C229.817 208.733 229.212 209.219 228.489 209.606C227.722 209.998 226.812 210.198 225.79 210.198H223.571V198.766H223.577Z" fill="url(#paint21_linear_1462_7382)"/>
<path d="M247.344 212.759V226.603H252.268L254.755 224.733V231.739H237.901L240.007 229.346V212.828H237.595L240.007 207.798V196.516L237.901 194.085H254.755V200.96L252.268 199.259H247.344V207.53H255.44L252.517 212.759H247.344Z" fill="#17488A"/>
<path d="M239.582 194.839C240.143 195.457 240.823 196.236 240.823 196.236V207.954C240.823 207.954 239.476 210.759 238.859 212.068H240.823V229.614C240.823 229.614 240.143 230.393 239.626 230.966H253.931V226.304C253.364 226.753 252.541 227.351 252.541 227.351H246.514V212.005H251.999C252.304 211.463 253.395 209.506 254.105 208.278H246.514V198.511H252.522C252.522 198.511 253.351 199.072 253.931 199.489V194.833H239.582V194.839Z" fill="url(#paint22_linear_1462_7382)"/>
<path d="M272.986 212.105L280.111 228.884H280.067L280.323 229.346L283.146 231.739H273.51V229.738L265.195 213.009V229.389L267.308 231.739H255.621L257.79 229.389V196.479L255.621 194.085H266.834C267.071 194.085 267.252 194.123 267.402 194.129C267.975 194.154 268.598 194.21 269.278 194.285C269.278 194.285 277.555 194.914 278.409 202.519C279.132 208.945 272.98 212.099 272.98 212.099L272.986 212.105ZM266.785 209.456C267.688 209.456 268.455 209.3 269.072 208.957C269.708 208.627 270.225 208.222 270.655 207.698C271.067 207.2 271.353 206.657 271.553 206.065C271.727 205.461 271.833 204.893 271.833 204.326C271.833 203.759 271.727 203.167 271.553 202.587C271.353 202.014 271.06 201.49 270.655 201.023C270.225 200.543 269.695 200.181 269.022 199.913C268.374 199.633 267.545 199.514 266.585 199.514H265.338V209.456H266.791H266.785Z" fill="#17488A"/>
<path d="M277.518 201.509C275.517 194.285 266.835 194.839 266.835 194.839H257.385C257.909 195.413 258.619 196.211 258.619 196.211V229.651C258.619 229.651 257.915 230.43 257.398 230.973H265.576C265.077 230.43 264.373 229.645 264.373 229.645V213.015L265.925 212.71L274.314 229.576V230.973H281.058C280.41 230.436 279.65 229.801 279.65 229.801L279.319 229.19L279.363 229.128L272.008 211.806C279.12 207.823 277.518 201.509 277.518 201.509ZM264.522 198.766H266.585C267.651 198.766 268.586 198.916 269.371 199.228C270.151 199.558 270.786 200.007 271.26 200.549C271.74 201.091 272.114 201.708 272.332 202.381C272.55 203.048 272.631 203.69 272.631 204.326C272.631 204.962 272.55 205.604 272.332 206.277C272.114 206.957 271.765 207.599 271.304 208.153C270.805 208.727 270.2 209.219 269.477 209.606C268.717 209.998 267.826 210.198 266.785 210.198H264.522V198.766Z" fill="url(#paint23_linear_1462_7382)"/>
<path d="M269.052 234.806C268.896 234.806 253.376 235.173 251.662 248.98C251.643 249.129 250.047 263.74 270.573 267.617L279.168 269.112C279.168 269.112 278.838 257.581 278.819 256.864C279.143 256.59 281.125 254.963 281.125 254.963L269.924 253.916C269.924 253.916 270.08 260.38 270.124 261.882C267.668 261.277 261.136 258.878 261.136 249.927C261.136 249.771 261.136 249.597 261.155 249.447C262.008 240.048 268.647 240.085 268.921 240.098C268.921 240.098 275.684 240.129 276.07 240.129C276.351 240.309 279 241.812 279 241.812L278.8 234.806H269.052Z" fill="#17488A"/>
<path d="M158.316 238.322C156.92 237.231 155.492 236.066 154.052 234.875H177.084C175.75 235.854 174.379 236.857 172.995 237.898C172.889 242.342 172.783 246.774 172.689 251.199C175.756 246.319 178.848 241.738 181.877 237.474C181.902 236.602 181.927 235.735 181.952 234.881H198.999C197.696 235.667 195.029 237.474 194.948 237.499C195.029 237.474 187.518 248.12 183.647 254.185C187.106 261.496 190.485 268.185 193.832 274.405C195.072 274.841 196.319 275.259 197.572 275.683C191.999 277.472 186.321 279.516 180.612 281.841C180.63 280.962 180.674 280.065 180.686 279.186C177.981 274.093 175.208 268.646 172.409 262.768C172.259 269.356 172.122 275.963 171.935 282.539C173.213 283.001 174.484 283.449 175.768 283.867C168.551 287.002 161.27 290.53 153.959 294.513C155.299 292.599 156.608 290.754 157.948 288.947C157.998 280.47 158.272 244.162 158.303 238.334L158.316 238.322Z" fill="#17488A"/>
<path d="M182.687 235.622C182.662 236.364 182.631 237.685 182.631 237.685L182.482 237.866C179.309 242.348 176.248 246.948 173.319 251.604L171.86 253.91L172.266 237.498C172.266 237.498 173.699 236.439 174.834 235.622H156.166C157.4 236.619 159.058 237.947 159.058 237.947V238.321L158.69 289.158C158.69 289.158 157.493 290.86 156.434 292.337C162.131 289.308 167.927 286.496 173.737 283.941C172.733 283.598 171.175 283.056 171.175 283.056V282.513L171.661 262.717L173.095 262.418C175.874 268.227 178.642 273.756 181.36 278.811L181.428 278.986C181.428 278.986 181.391 280.008 181.391 280.712C186.003 278.88 190.628 277.178 195.241 275.657C194.437 275.389 193.308 275.003 193.308 275.003L193.184 274.747C189.718 268.321 186.371 261.689 182.961 254.477L182.787 254.109L183.011 253.748C186.664 248.026 194.524 236.85 194.524 236.85C194.524 236.85 195.502 236.233 196.469 235.585C193.551 235.585 183.803 235.61 182.662 235.61L182.687 235.622Z" fill="url(#paint24_linear_1462_7382)"/>
<path d="M198.389 275.414C199.585 274.236 200.757 273.089 201.941 271.992C202.334 260.38 202.733 248.762 203.119 237.23C202.029 236.445 200.925 235.66 199.81 234.874H217.923C216.863 235.579 215.804 236.289 214.707 237.025C214.414 247.671 214.115 258.336 213.815 268.988C214.875 269.462 215.941 269.948 217.013 270.409C210.923 271.743 204.715 273.395 198.382 275.414H198.389Z" fill="#17488A"/>
<path d="M202.141 235.591C202.839 236.096 203.868 236.831 203.868 236.831V237.243L202.665 272.31C202.665 272.31 201.73 273.208 201.119 273.794C205.669 272.422 210.201 271.226 214.689 270.185C214.121 269.948 213.055 269.462 213.055 269.462L213.286 261.153L213.99 236.62C213.99 236.62 214.944 235.965 215.493 235.591H202.135H202.141Z" fill="url(#paint25_linear_1462_7382)"/>
<path d="M229.036 234.806C232.302 238.726 235.593 242.485 238.853 246.175V241.656C238.902 240.023 238.959 238.365 238.99 236.738C238.03 236.09 237.07 235.46 236.098 234.799H252.117C251.219 235.466 250.328 236.139 249.393 236.781C249.524 247.602 249.679 258.423 249.792 269.231C249.524 269.268 249.224 269.312 248.944 269.362C243.515 262.917 238.042 256.802 232.57 250.438C232.526 255.543 232.476 260.648 232.42 265.74C233.461 266.258 234.502 266.787 235.53 267.323C229.771 267.997 223.837 268.969 217.766 270.265C218.882 269.312 219.985 268.402 221.095 267.486C221.331 257.288 221.531 247.072 221.768 236.894C220.739 236.214 219.705 235.51 218.657 234.806H229.036Z" fill="#17488A"/>
<path d="M238.567 235.578C238.91 235.797 239.739 236.339 239.739 236.339V236.763L239.589 241.687C239.589 241.855 239.583 248.157 239.583 248.157L238.28 246.655C235.451 243.451 232.116 239.63 228.694 235.572H221.146C221.601 235.871 222.529 236.476 222.529 236.476L222.511 236.912L221.838 267.847C221.838 267.847 220.99 268.57 220.516 268.932C224.742 268.084 228.925 267.411 233.038 266.868C232.639 266.669 231.673 266.189 231.673 266.189V265.715L231.842 248.468L239.184 256.895C242.425 260.604 245.772 264.444 249.07 268.321C249.02 266.644 248.646 236.389 248.646 236.389C248.646 236.389 249.469 235.821 249.836 235.566H238.567V235.578Z" fill="url(#paint26_linear_1462_7382)"/>
<path d="M284.922 265.703C287.316 266.283 289.64 266.943 291.866 267.66C288.681 257.594 285.215 248.606 281.675 240.278C281.637 239.219 281.606 238.196 281.606 237.143C281.6 236.62 281.949 236.152 282.666 235.66C283.364 235.13 284.099 234.874 284.866 234.874H298.772V242.254C297.987 241.581 297.201 240.883 296.416 240.235C294.004 240.098 292.925 239.973 290.413 239.861C293.848 248.762 297.095 258.56 300.012 269.574C300.012 270.771 300.081 273.737 300.006 273.993C299.9 274.217 299.75 274.411 299.551 274.56C299.37 274.716 299.096 274.797 298.772 274.822C298.473 274.834 298.099 274.741 297.669 274.541C293.318 272.622 287.216 270.957 282.335 269.717C282.285 267.623 282.204 265.541 282.179 263.447C283.002 264.145 283.875 264.88 284.723 265.628C284.804 265.653 284.872 265.659 284.934 265.697L284.922 265.703Z" fill="#17488A"/>
<path d="M283.139 236.289H283.114L283.108 236.302C282.653 236.62 282.385 236.925 282.385 237.1C282.385 237.1 282.447 239.848 282.447 240.123C286.343 249.204 289.684 258.142 292.644 267.436L293.099 268.888L291.628 268.414C289.428 267.71 287.097 267.037 284.753 266.457L284.336 266.364L284.174 266.233C284.174 266.233 283.569 265.709 282.996 265.211C283.039 266.794 283.07 268.421 283.102 269.113C287.54 270.241 293.635 271.917 297.974 273.819C298.385 273.999 298.622 274.037 298.74 274.037C298.853 274.037 298.971 273.999 299.064 273.931C299.133 273.868 299.195 273.794 299.22 273.719C299.258 273.526 299.258 273.114 299.258 272.609C299.258 272.017 299.258 271.325 299.233 270.808C299.233 270.808 299.227 269.854 299.227 269.655C296.484 259.439 293.374 249.778 289.69 240.141L289.235 239.001L293.922 239.275L296.746 239.474L296.939 239.63C296.939 239.63 297.463 240.085 297.98 240.528V235.647H284.872C284.267 235.647 283.725 235.847 283.151 236.283L283.139 236.289Z" fill="url(#paint27_linear_1462_7382)"/>
<path d="M270.724 266.819C250.672 263.048 252.461 249.079 252.461 249.079C254.1 235.797 269.072 235.585 269.072 235.585H278.035L278.166 240.428L276.302 239.337L268.947 239.256C268.947 239.256 261.299 239.057 260.358 249.372C260.034 261.496 270.93 262.829 270.93 262.829L270.718 254.758L279.138 255.549L278.004 256.49L278.334 268.14L270.718 266.8L270.724 266.819Z" fill="url(#paint28_linear_1462_7382)"/>
<path d="M194.816 180.996V176.159L193.582 175.137H200.332L199.098 176.159V180.871H201.741V176.159L200.5 175.137H207.276L205.985 176.134V190.233L207.276 191.212H200.525L201.784 190.233V183.177H199.092V190.215L200.326 191.212H193.575L194.809 190.215V183.177H193.395L194.809 181.002L194.816 180.996Z" fill="#0A67B2"/>
<path d="M212.886 183.09V189.005H215.759L217.237 188.22V191.206H207.395L208.616 190.183V183.115H207.208L208.616 180.977V176.159L207.395 175.137H217.237V178.066L215.759 177.343H212.886V180.884H217.611L215.915 183.103H212.886V183.09Z" fill="#0A67B2"/>
<path d="M221.768 175.105L225.645 180.74V178.565L225.682 176.128L224.473 175.105H231.367L230.151 176.153V192.651L229.715 192.72L223.245 182.866V190.202L224.473 191.199H217.71L218.932 190.202V176.121L217.71 175.099H221.761L221.768 175.105Z" fill="#0A67B2"/>
<path d="M235.556 175.105L239.427 180.74V178.565L239.465 176.128L238.243 175.105H245.18L243.934 176.153V192.651L243.535 192.72L237.034 182.866V190.202L238.249 191.199H231.505L232.727 190.202V176.121L231.505 175.099H235.563L235.556 175.105Z" fill="#0A67B2"/>
<path d="M252.228 191.206L253.475 190.227V183.171H250.801V190.208L251.998 191.206H245.285L246.519 190.208V183.171H245.091L246.525 180.996V176.489C246.531 176.115 247.005 175.766 247.921 175.492C248.769 175.255 249.648 175.131 250.576 175.131H253.687C254.104 175.131 254.559 175.187 254.952 175.224C255.345 175.305 255.775 175.399 256.217 175.523C257.046 175.748 257.564 176.084 257.707 176.483V190.221L258.985 191.199H252.228V191.206ZM250.807 177.281V180.871H253.456V177.281H250.807Z" fill="#0A67B2"/>
<path d="M259.104 191.206L260.301 190.208V176.159L259.104 175.137H265.593L264.415 176.159V190.208L265.593 191.206H259.104Z" fill="#0A67B2"/>
<path d="M193.146 178.609V175.106C193.146 175.106 184.139 174.102 183.529 183.034C183.529 183.034 183.379 190.246 191.039 191.149L193.146 191.218V187.628L191.663 188.513C191.663 188.513 187.811 188.837 187.568 183.09C187.568 183.09 187.717 177.586 191.7 177.736L193.152 178.609H193.146Z" fill="#0A67B2"/>
<path d="M239.656 167.003C233.785 164.746 236.328 159.249 236.328 159.249C236.328 159.249 235.405 161.287 232.195 160.963C225.769 160.314 225.339 151.258 225.339 151.258C224.136 157.073 221.58 159.747 218.134 160.314C214.331 160.919 213.477 158.145 213.477 158.145C213.477 158.145 214.911 162.783 210.654 165.045C206.74 167.108 203.966 163.132 203.966 163.132L209.825 173.192C213.222 169.558 217.897 166.074 224.254 166.055C230.662 166.03 236.421 169.103 239.494 173.155H239.538L244.786 165.345C242.006 168 239.65 166.996 239.65 166.996L239.656 167.003ZM224.79 162.714L223.027 160.882L224.94 159.186L226.741 161.006L224.797 162.714H224.79Z" fill="#0066B3"/>
<path d="M203.785 162.222L201.547 161.605L202.214 159.492L204.427 160.096L203.785 162.222Z" fill="#0066B3"/>
<path d="M212.885 156.637L210.748 155.777L211.639 153.757L213.777 154.611L212.885 156.637Z" fill="#0066B3"/>
<path d="M245.404 164.266L247.779 163.811L247.305 161.449L244.924 161.892L245.404 164.266Z" fill="#0066B3"/>
<path d="M237.162 157.921L239.393 157.335L238.782 155.203L236.532 155.789L237.162 157.921Z" fill="#0066B3"/>
<path d="M225.183 149.693L223.139 147.599L225.314 145.667L227.377 147.755L225.183 149.693Z" fill="#0066B3"/>
<defs>
<radialGradient id="paint0_radial_1462_7382" cx="0" cy="0" r="1" gradientUnits="userSpaceOnUse" gradientTransform="translate(111.327 225.848) scale(43.6778 43.6778)">
<stop offset="0.11" stop-color="#FCEE21"/>
<stop offset="0.27" stop-color="#FADC21"/>
<stop offset="0.59" stop-color="#F7B022"/>
<stop offset="1" stop-color="#F27024"/>
</radialGradient>
<radialGradient id="paint1_radial_1462_7382" cx="0" cy="0" r="1" gradientUnits="userSpaceOnUse" gradientTransform="translate(111.327 225.848) scale(43.6778 43.6778)">
<stop offset="0.11" stop-color="#FCEE21"/>
<stop offset="0.27" stop-color="#FADC21"/>
<stop offset="0.59" stop-color="#F7B022"/>
<stop offset="1" stop-color="#F27024"/>
</radialGradient>
<radialGradient id="paint2_radial_1462_7382" cx="0" cy="0" r="1" gradientUnits="userSpaceOnUse" gradientTransform="translate(111.328 226.121) scale(43.9499 43.9502)">
<stop offset="0.11" stop-color="#FCEE21"/>
<stop offset="0.27" stop-color="#FADC21"/>
<stop offset="0.59" stop-color="#F7B022"/>
<stop offset="1" stop-color="#F27024"/>
</radialGradient>
<radialGradient id="paint3_radial_1462_7382" cx="0" cy="0" r="1" gradientUnits="userSpaceOnUse" gradientTransform="translate(111.328 225.712) scale(43.6778 43.6778)">
<stop offset="0.11" stop-color="#FCEE21"/>
<stop offset="0.27" stop-color="#FADC21"/>
<stop offset="0.59" stop-color="#F7B022"/>
<stop offset="1" stop-color="#F27024"/>
</radialGradient>
<radialGradient id="paint4_radial_1462_7382" cx="0" cy="0" r="1" gradientUnits="userSpaceOnUse" gradientTransform="translate(111.327 225.984) scale(43.8138 43.8137)">
<stop offset="0.11" stop-color="#FCEE21"/>
<stop offset="0.27" stop-color="#FADC21"/>
<stop offset="0.59" stop-color="#F7B022"/>
<stop offset="1" stop-color="#F27024"/>
</radialGradient>
<radialGradient id="paint5_radial_1462_7382" cx="0" cy="0" r="1" gradientUnits="userSpaceOnUse" gradientTransform="translate(111.327 225.984) scale(43.814 43.8134)">
<stop offset="0.11" stop-color="#FCEE21"/>
<stop offset="0.27" stop-color="#FADC21"/>
<stop offset="0.59" stop-color="#F7B022"/>
<stop offset="1" stop-color="#F27024"/>
</radialGradient>
<radialGradient id="paint6_radial_1462_7382" cx="0" cy="0" r="1" gradientUnits="userSpaceOnUse" gradientTransform="translate(111.328 225.577) scale(43.5417 43.5421)">
<stop offset="0.11" stop-color="#FCEE21"/>
<stop offset="0.27" stop-color="#FADC21"/>
<stop offset="0.59" stop-color="#F7B022"/>
<stop offset="1" stop-color="#F27024"/>
</radialGradient>
<radialGradient id="paint7_radial_1462_7382" cx="0" cy="0" r="1" gradientUnits="userSpaceOnUse" gradientTransform="translate(111.329 226.257) scale(44.086 44.086)">
<stop offset="0.11" stop-color="#FCEE21"/>
<stop offset="0.27" stop-color="#FADC21"/>
<stop offset="0.59" stop-color="#F7B022"/>
<stop offset="1" stop-color="#F27024"/>
</radialGradient>
<radialGradient id="paint8_radial_1462_7382" cx="0" cy="0" r="1" gradientUnits="userSpaceOnUse" gradientTransform="translate(111.328 225.848) scale(43.6778 43.6777)">
<stop offset="0.11" stop-color="#FCEE21"/>
<stop offset="0.27" stop-color="#FADC21"/>
<stop offset="0.59" stop-color="#F7B022"/>
<stop offset="1" stop-color="#F27024"/>
</radialGradient>
<radialGradient id="paint9_radial_1462_7382" cx="0" cy="0" r="1" gradientUnits="userSpaceOnUse" gradientTransform="translate(111.328 225.848) scale(43.6778 43.6778)">
<stop offset="0.11" stop-color="#FCEE21"/>
<stop offset="0.27" stop-color="#FADC21"/>
<stop offset="0.59" stop-color="#F7B022"/>
<stop offset="1" stop-color="#F27024"/>
</radialGradient>
<radialGradient id="paint10_radial_1462_7382" cx="0" cy="0" r="1" gradientUnits="userSpaceOnUse" gradientTransform="translate(91.1822 221.449) scale(43.6034 43.6034)">
<stop offset="0.11" stop-color="#FCEE21"/>
<stop offset="0.27" stop-color="#FADC21"/>
<stop offset="0.59" stop-color="#F7B022"/>
<stop offset="1" stop-color="#F27024"/>
</radialGradient>
<radialGradient id="paint11_radial_1462_7382" cx="0" cy="0" r="1" gradientUnits="userSpaceOnUse" gradientTransform="translate(91.1823 221.551) scale(43.6034)">
<stop offset="0.11" stop-color="#FCEE21"/>
<stop offset="0.27" stop-color="#FADC21"/>
<stop offset="0.59" stop-color="#F7B022"/>
<stop offset="1" stop-color="#F27024"/>
</radialGradient>
<radialGradient id="paint12_radial_1462_7382" cx="0" cy="0" r="1" gradientUnits="userSpaceOnUse" gradientTransform="translate(91.1818 221.551) scale(43.6034 43.6034)">
<stop offset="0.11" stop-color="#FCEE21"/>
<stop offset="0.27" stop-color="#FADC21"/>
<stop offset="0.59" stop-color="#F7B022"/>
<stop offset="1" stop-color="#F27024"/>
</radialGradient>
<radialGradient id="paint13_radial_1462_7382" cx="0" cy="0" r="1" gradientUnits="userSpaceOnUse" gradientTransform="translate(111.327 225.849) scale(43.6778 43.6779)">
<stop offset="0.11" stop-color="#FCEE21"/>
<stop offset="0.27" stop-color="#FADC21"/>
<stop offset="0.59" stop-color="#F7B022"/>
<stop offset="1" stop-color="#F27024"/>
</radialGradient>
<radialGradient id="paint14_radial_1462_7382" cx="0" cy="0" r="1" gradientUnits="userSpaceOnUse" gradientTransform="translate(114.322 225.849) scale(41.5007 41.5007)">
<stop offset="0.11" stop-color="#FCEE21"/>
<stop offset="0.27" stop-color="#FADC21"/>
<stop offset="0.59" stop-color="#F7B022"/>
<stop offset="1" stop-color="#F27024"/>
</radialGradient>
<radialGradient id="paint15_radial_1462_7382" cx="0" cy="0" r="1" gradientUnits="userSpaceOnUse" gradientTransform="translate(111.327 225.848) scale(43.6778 43.6777)">
<stop offset="0.11" stop-color="#FCEE21"/>
<stop offset="0.27" stop-color="#FADC21"/>
<stop offset="0.59" stop-color="#F7B022"/>
<stop offset="1" stop-color="#F27024"/>
</radialGradient>
<radialGradient id="paint16_radial_1462_7382" cx="0" cy="0" r="1" gradientUnits="userSpaceOnUse" gradientTransform="translate(111.328 225.848) scale(43.6778 43.6777)">
<stop offset="0.11" stop-color="#FCEE21"/>
<stop offset="0.27" stop-color="#FADC21"/>
<stop offset="0.59" stop-color="#F7B022"/>
<stop offset="1" stop-color="#F27024"/>
</radialGradient>
<radialGradient id="paint17_radial_1462_7382" cx="0" cy="0" r="1" gradientUnits="userSpaceOnUse" gradientTransform="translate(111.327 225.44) scale(43.4056 43.4057)">
<stop offset="0.11" stop-color="#FCEE21"/>
<stop offset="0.27" stop-color="#FADC21"/>
<stop offset="0.59" stop-color="#F7B022"/>
<stop offset="1" stop-color="#F27024"/>
</radialGradient>
<radialGradient id="paint18_radial_1462_7382" cx="0" cy="0" r="1" gradientUnits="userSpaceOnUse" gradientTransform="translate(111.327 225.848) scale(43.6778 43.6778)">
<stop offset="0.11" stop-color="#FCEE21"/>
<stop offset="0.27" stop-color="#FADC21"/>
<stop offset="0.59" stop-color="#F7B022"/>
<stop offset="1" stop-color="#F27024"/>
</radialGradient>
<linearGradient id="paint19_linear_1462_7382" x1="182.302" y1="195.251" x2="182.302" y2="216.425" gradientUnits="userSpaceOnUse">
<stop stop-color="#29ABE2"/>
<stop offset="0.22" stop-color="#2599D2"/>
<stop offset="0.67" stop-color="#1D6DAB"/>
<stop offset="1" stop-color="#17488A"/>
</linearGradient>
<linearGradient id="paint20_linear_1462_7382" x1="202.902" y1="-17.3902" x2="202.902" y2="-17.3902" gradientUnits="userSpaceOnUse">
<stop stop-color="#29ABE2"/>
<stop offset="0.22" stop-color="#2599D2"/>
<stop offset="0.67" stop-color="#1D6DAB"/>
<stop offset="1" stop-color="#17488A"/>
</linearGradient>
<linearGradient id="paint21_linear_1462_7382" x1="226.501" y1="195.774" x2="226.501" y2="216.636" gradientUnits="userSpaceOnUse">
<stop stop-color="#29ABE2"/>
<stop offset="0.22" stop-color="#2599D2"/>
<stop offset="0.67" stop-color="#1D6DAB"/>
<stop offset="1" stop-color="#17488A"/>
</linearGradient>
<linearGradient id="paint22_linear_1462_7382" x1="246.482" y1="-17.3902" x2="246.482" y2="-17.3902" gradientUnits="userSpaceOnUse">
<stop stop-color="#29ABE2"/>
<stop offset="0.22" stop-color="#2599D2"/>
<stop offset="0.67" stop-color="#1D6DAB"/>
<stop offset="1" stop-color="#17488A"/>
</linearGradient>
<linearGradient id="paint23_linear_1462_7382" x1="269.222" y1="195.238" x2="269.222" y2="216.418" gradientUnits="userSpaceOnUse">
<stop stop-color="#29ABE2"/>
<stop offset="0.22" stop-color="#2599D2"/>
<stop offset="0.67" stop-color="#1D6DAB"/>
<stop offset="1" stop-color="#17488A"/>
</linearGradient>
<linearGradient id="paint24_linear_1462_7382" x1="176.33" y1="235.597" x2="176.33" y2="254.041" gradientUnits="userSpaceOnUse">
<stop stop-color="#29ABE2"/>
<stop offset="0.17" stop-color="#27A4DB"/>
<stop offset="0.41" stop-color="#2490CA"/>
<stop offset="0.7" stop-color="#1E71AE"/>
<stop offset="1" stop-color="#17488A"/>
</linearGradient>
<linearGradient id="paint25_linear_1462_7382" x1="208.312" y1="235.591" x2="208.312" y2="254.035" gradientUnits="userSpaceOnUse">
<stop stop-color="#29ABE2"/>
<stop offset="0.17" stop-color="#27A4DB"/>
<stop offset="0.41" stop-color="#2490CA"/>
<stop offset="0.7" stop-color="#1E71AE"/>
<stop offset="1" stop-color="#17488A"/>
</linearGradient>
<linearGradient id="paint26_linear_1462_7382" x1="235.17" y1="235.578" x2="235.17" y2="254.016" gradientUnits="userSpaceOnUse">
<stop stop-color="#29ABE2"/>
<stop offset="0.17" stop-color="#27A4DB"/>
<stop offset="0.41" stop-color="#2490CA"/>
<stop offset="0.7" stop-color="#1E71AE"/>
<stop offset="1" stop-color="#17488A"/>
</linearGradient>
<linearGradient id="paint27_linear_1462_7382" x1="290.818" y1="235.572" x2="290.818" y2="254.016" gradientUnits="userSpaceOnUse">
<stop stop-color="#29ABE2"/>
<stop offset="0.17" stop-color="#27A4DB"/>
<stop offset="0.41" stop-color="#2490CA"/>
<stop offset="0.7" stop-color="#1E71AE"/>
<stop offset="1" stop-color="#17488A"/>
</linearGradient>
<linearGradient id="paint28_linear_1462_7382" x1="265.781" y1="236.426" x2="265.781" y2="253.979" gradientUnits="userSpaceOnUse">
<stop stop-color="#29ABE2"/>
<stop offset="0.17" stop-color="#27A4DB"/>
<stop offset="0.41" stop-color="#2490CA"/>
<stop offset="0.7" stop-color="#1E71AE"/>
<stop offset="1" stop-color="#17488A"/>
</linearGradient>
</defs>
</svg>
