<svg width="414" height="414" viewBox="0 0 414 414" fill="none" xmlns="http://www.w3.org/2000/svg">
<path d="M207.002 407.144C317.538 407.144 407.145 317.537 407.145 207C407.145 96.4639 317.538 6.85645 207.002 6.85645C96.4653 6.85645 6.85791 96.4639 6.85791 207C6.85791 317.537 96.4653 407.144 207.002 407.144Z" fill="#ED1C24"/>
<path d="M359.861 207H359.182C359.182 249.024 342.153 287.064 314.609 314.608C287.072 342.146 249.031 359.181 207.002 359.181C164.978 359.181 126.938 342.152 99.394 314.608C71.8563 287.07 54.8213 249.03 54.8213 207C54.8213 164.977 71.8501 126.937 99.394 99.3927C126.932 71.855 164.972 54.82 207.002 54.82C249.025 54.82 287.065 71.8487 314.609 99.3927C342.147 126.93 359.182 164.971 359.182 207H360.547C360.547 122.199 291.803 53.4612 207.008 53.4612C122.207 53.4612 53.4688 122.206 53.4688 207C53.4688 291.801 122.213 360.539 207.008 360.539C291.809 360.539 360.547 291.795 360.547 207H359.868H359.861Z" fill="#FFDEAD"/>
<path d="M363.781 207.001H363.083C363.083 250.102 345.612 289.115 317.37 317.363C289.122 345.612 250.109 363.077 207.007 363.077C163.905 363.077 124.893 345.605 96.6444 317.363C68.3962 289.115 50.9311 250.102 50.9311 207.001C50.9311 163.899 68.4024 124.88 96.6444 96.638C124.893 68.3897 163.905 50.9247 207.007 50.9247C250.109 50.9247 289.122 68.3959 317.37 96.638C345.618 124.886 363.083 163.899 363.083 207.001H364.479C364.479 120.024 293.977 49.5222 207.001 49.5222C120.031 49.5222 49.5225 120.024 49.5225 207.001C49.5225 293.971 120.025 364.479 207.001 364.479C293.971 364.479 364.479 293.977 364.479 207.001H363.781Z" fill="#FFDEAD"/>
<path d="M367.801 207H367.085C367.085 251.205 349.171 291.222 320.2 320.193C291.228 349.164 251.212 367.078 207.007 367.078C162.802 367.078 122.786 349.164 93.8146 320.193C64.8433 291.222 46.9295 251.205 46.9295 207C46.9295 162.795 64.8433 122.779 93.8146 93.8079C122.786 64.8366 162.802 46.9227 207.007 46.9227C251.212 46.9227 291.228 64.8366 320.2 93.8079C349.171 122.779 367.085 162.795 367.085 207H368.518C368.518 117.799 296.208 45.4829 207.001 45.4829C117.799 45.4829 45.4834 117.793 45.4834 207C45.4834 296.202 117.799 368.518 207.001 368.518C296.202 368.518 368.518 296.202 368.518 207H367.801Z" fill="#FFDEAD"/>
<path d="M371.922 207H371.186C371.186 252.34 352.811 293.384 323.098 323.097C293.385 352.81 252.34 371.185 207.001 371.185C161.662 371.185 120.617 352.81 90.9038 323.097C61.1908 293.384 42.8157 252.34 42.8157 207C42.8157 161.661 61.1908 120.616 90.9038 90.9031C120.617 61.1901 161.662 42.815 207.001 42.815C252.34 42.815 293.385 61.1901 323.098 90.9031C352.811 120.616 371.186 161.661 371.186 207H372.657C372.657 115.511 298.49 41.344 207.001 41.344C115.512 41.344 41.3447 115.511 41.3447 207C41.3447 298.489 115.512 372.656 207.001 372.656C298.49 372.656 372.657 298.489 372.657 207H371.922Z" fill="#FFDEAD"/>
<path d="M376.154 207.001H375.4C375.4 253.506 356.551 295.597 326.077 326.071C295.604 356.544 253.506 375.393 207.007 375.393C160.502 375.393 118.41 356.544 87.9369 326.071C57.4634 295.597 38.6146 253.499 38.6146 207.001C38.6146 160.496 57.4634 118.404 87.9369 87.9242C118.41 57.4507 160.508 38.6019 207.007 38.6019C253.512 38.6019 295.604 57.4507 326.077 87.9242C356.551 118.398 375.4 160.496 375.4 207.001H376.908C376.908 113.162 300.84 37.0935 207.001 37.0935C113.162 37.0935 37.0938 113.162 37.0938 207.001C37.0938 300.839 113.162 376.908 207.001 376.908C300.84 376.908 376.908 300.839 376.908 207.001H376.154Z" fill="#FFDEAD"/>
<path d="M380.486 207.001H379.713C379.713 254.696 360.385 297.872 329.126 329.125C297.867 360.384 254.697 379.713 207.001 379.713C159.306 379.713 116.129 360.384 84.8768 329.125C53.618 297.866 34.2892 254.696 34.2892 207.001C34.2892 159.305 53.618 116.129 84.8768 84.8762C116.136 53.6173 159.306 34.2886 207.001 34.2886C254.697 34.2886 297.873 53.6173 329.126 84.8762C360.385 116.135 379.713 159.305 379.713 207.001H381.259C381.259 110.756 303.24 32.7366 206.995 32.7366C110.75 32.7366 32.731 110.756 32.731 207.001C32.731 303.245 110.75 381.258 206.995 381.265C303.24 381.265 381.253 303.245 381.259 207.001H380.486Z" fill="#FFDEAD"/>
<path d="M384.936 207H384.145C384.145 255.918 364.317 300.197 332.261 332.26C300.204 364.317 255.924 384.144 207.001 384.144C158.084 384.144 113.804 364.317 81.7413 332.26C49.6846 300.204 29.8572 255.924 29.8572 207C29.8572 158.083 49.6846 113.804 81.7413 81.7408C113.798 49.6841 158.078 29.8568 207.001 29.8568C255.918 29.8568 300.198 49.6841 332.261 81.7408C364.317 113.797 384.145 158.077 384.145 207H385.734C385.734 108.287 305.714 28.2736 207.007 28.2673C108.294 28.2673 28.2803 108.287 28.2803 207C28.2803 305.707 108.3 385.727 207.007 385.727C305.72 385.727 385.734 305.707 385.734 207H384.943H384.936Z" fill="#FFDEAD"/>
<path d="M389.5 207H388.683C388.683 257.176 368.351 302.591 335.472 335.47C302.592 368.349 257.178 388.682 207.002 388.682C156.826 388.682 111.412 368.349 78.5321 335.47C45.6527 302.591 25.3204 257.176 25.3204 207C25.3204 156.824 45.6527 111.41 78.5321 78.5305C111.412 45.6511 156.826 25.3189 207.002 25.3189C257.178 25.3189 302.592 45.6511 335.472 78.5305C368.351 111.41 388.683 156.824 388.683 207H390.31C390.31 105.757 308.239 23.6858 206.996 23.6858C105.752 23.6858 23.6812 105.757 23.6812 207C23.6812 308.244 105.752 390.315 206.996 390.315C308.239 390.315 390.31 308.244 390.31 207H389.494H389.5Z" fill="#FFDEAD"/>
<path d="M394.18 207.001H393.345C393.345 258.461 372.489 305.04 338.768 338.761C305.047 372.482 258.461 393.338 207.007 393.338C155.547 393.338 108.967 372.482 75.2465 338.761C41.5256 305.034 20.6697 258.455 20.6697 207.001C20.6697 155.54 41.5256 108.961 75.2465 75.2335C108.974 41.5126 155.553 20.6568 207.007 20.6568C258.467 20.6568 305.047 41.5126 338.768 75.2335C372.489 108.961 393.345 155.54 393.345 207.001H395.015C395.015 103.164 310.838 18.9863 207.001 18.9863C103.164 18.9863 18.9868 103.164 18.9868 207.001C18.9868 310.837 103.164 395.015 207.001 395.015C310.838 395.015 395.015 310.837 395.015 207.001H394.18Z" fill="#FFDEAD"/>
<path d="M398.98 207H398.12C398.12 259.782 376.728 307.552 342.14 342.139C307.553 376.727 259.777 398.118 206.995 398.118C154.213 398.118 106.443 376.727 71.8497 342.139C37.2625 307.552 15.8706 259.775 15.8706 207C15.8706 154.218 37.2625 106.448 71.8497 71.8547C106.437 37.2675 154.213 15.8756 206.995 15.8756C259.777 15.8756 307.547 37.2675 342.14 71.8547C376.728 106.442 398.12 154.218 398.12 207H399.834C399.834 100.502 313.499 14.1677 207.001 14.1677C100.503 14.1677 14.1689 100.502 14.1689 207C14.1689 313.498 100.503 399.832 207.001 399.832C313.499 399.832 399.834 313.498 399.834 207H398.98Z" fill="#FFDEAD"/>
<path d="M310.5 310.5C367.661 253.339 367.661 160.661 310.5 103.5C253.339 46.3385 160.661 46.3385 103.5 103.5C46.3385 160.661 46.3385 253.339 103.5 310.5C160.661 367.661 253.339 367.661 310.5 310.5Z" fill="white"/>
<path d="M287.028 123.832C286.898 123.876 273.877 128.283 257.496 128.283C248.701 128.283 240.48 127.036 233.062 124.58C223.987 121.576 216.046 116.714 209.47 110.138L206.983 107.651L204.496 110.138C197.939 116.696 189.973 121.545 180.829 124.543C173.368 126.986 165.085 128.227 156.203 128.227C139.997 128.227 127.069 124.001 126.938 123.957L122.307 122.411V127.292V229.277C122.307 244.274 126.352 258.51 134.331 271.587C140.794 282.183 149.82 292.007 161.158 300.777C180.879 316.041 201.748 323.583 206.722 324.469L207.339 324.575L207.956 324.469C212.2 323.714 233.443 316.179 253.233 300.708C264.465 291.926 273.403 282.102 279.811 271.512C287.708 258.448 291.716 244.237 291.716 229.277V122.212L287.041 123.832H287.028Z" fill="url(#paint0_linear_1462_7492)"/>
<path d="M207.331 319.127C202.694 318.136 183.047 310.961 164.385 296.519C153.559 288.142 144.963 278.805 138.836 268.757C131.369 256.522 127.585 243.214 127.585 229.202V129.592C132.161 130.869 142.987 133.431 156.195 133.431C176.708 133.431 194.229 127.067 206.976 115.012C219.897 127.273 236.882 133.493 257.489 133.493C270.846 133.493 281.791 130.813 286.41 129.479V229.196C286.41 243.177 282.664 256.472 275.272 268.695C269.201 278.736 260.686 288.08 249.965 296.457C231.416 310.961 211.931 318.129 207.331 319.12V319.127Z" fill="#ED1C24"/>
<path d="M206.984 117.425C213.827 123.589 221.837 128.22 230.844 131.206C238.978 133.899 247.941 135.264 257.496 135.264C269.208 135.264 279.119 133.232 284.648 131.798V229.202C284.648 242.859 280.982 255.842 273.758 267.785C267.8 277.639 259.429 286.821 248.876 295.073C230.987 309.06 212.338 316.11 207.333 317.313C202.278 316.104 183.472 309.054 165.471 295.117C154.819 286.871 146.367 277.696 140.352 267.835C133.059 255.88 129.357 242.884 129.357 229.196V131.885C134.83 133.257 144.622 135.201 156.196 135.201C165.827 135.201 174.852 133.843 183.024 131.169C192.099 128.195 200.146 123.577 206.984 117.425ZM206.984 112.55C191.787 127.747 172.278 131.667 156.203 131.667C139.068 131.667 125.823 127.217 125.823 127.217V229.202C125.823 291.695 198.619 319.382 207.339 320.934C216.134 319.376 288.194 291.552 288.194 229.202V127.08C288.194 127.08 274.806 131.723 257.503 131.723C241.527 131.723 222.211 127.765 206.99 112.544L206.984 112.55Z" fill="white"/>
<path d="M244.001 197.774C236.465 196.372 228.549 195.692 220.465 195.231C220.029 195.206 216.775 195.069 216.781 191.516V161.049H239.214C242.193 161.049 243.957 162.707 243.97 164.608V169.283L236.135 168.865C235.262 168.84 234.527 168.236 234.521 167.519V165.418H226.249V191.043C226.249 191.043 232.688 191.298 234.508 191.703V177.629C234.284 177.635 230.388 177.38 230.388 177.38L231.934 173.129L239.414 173.409C239.414 173.409 243.995 173.59 243.995 178.402C243.995 178.402 243.995 197.114 243.995 197.793L244.001 197.774Z" fill="white"/>
<path d="M244.512 198.391L243.907 198.279C235.755 196.758 227.084 196.123 220.44 195.742C217.822 195.593 216.27 194.016 216.27 191.51V160.532H239.214C242.648 160.532 244.468 162.576 244.487 164.602V169.825L236.11 169.376C234.963 169.345 234.016 168.51 234.009 167.519V165.93H226.766V190.55C228.15 190.612 232.052 190.806 233.997 191.086V178.115C233.031 178.065 231.067 177.934 230.357 177.885L229.671 177.841L231.578 172.593L239.432 172.886C239.482 172.886 244.512 173.147 244.512 178.389C244.512 178.576 244.512 197.107 244.512 197.781V198.398V198.391ZM217.292 161.56V191.51C217.292 194.14 219.287 194.645 220.477 194.714C227.003 195.088 235.455 195.705 243.484 197.157C243.484 193.835 243.484 178.552 243.484 178.383C243.484 174.139 239.557 173.914 239.395 173.908L232.289 173.646L231.105 176.906C232.526 176.999 234.296 177.112 234.489 177.112H235.007L235.013 177.623V192.339L234.39 192.202C232.632 191.815 226.28 191.56 226.218 191.554L225.726 191.535V164.901H235.025V167.519C235.025 167.949 235.549 168.336 236.141 168.354L243.446 168.747V164.614C243.427 162.825 241.688 161.573 239.201 161.573H217.286L217.292 161.56Z" fill="url(#paint1_linear_1462_7492)"/>
<path d="M211.856 161.049H202.451L202.426 172.773L194.105 161.049H184.63V195.979C187.747 195.605 190.907 195.524 194.105 195.306V172.599L202.407 184.554L202.388 194.907C204.202 194.857 206.028 194.832 207.861 194.832C209.201 194.832 210.529 194.851 211.856 194.876V161.049Z" fill="white"/>
<path d="M184.112 196.559V160.532H194.366L201.908 171.165L201.926 160.532H212.36V195.393L211.837 195.381C210.316 195.35 209.051 195.337 207.848 195.337C206.084 195.337 204.245 195.362 202.388 195.412L201.858 195.424L201.883 184.704L194.609 174.232V195.773L194.129 195.805C193.107 195.873 192.097 195.929 191.081 195.985C188.968 196.104 186.786 196.222 184.679 196.478L184.106 196.546L184.112 196.559ZM185.141 161.56V195.4C187.098 195.188 189.099 195.075 191.037 194.969C191.885 194.92 192.739 194.876 193.593 194.82V170.953L202.924 184.386L202.905 194.377C204.594 194.334 206.258 194.315 207.866 194.315C208.932 194.315 210.048 194.327 211.351 194.346V161.56H202.967L202.942 174.382L193.842 161.56H185.147H185.141Z" fill="url(#paint2_linear_1462_7492)"/>
<path d="M275.165 171.663V165.162C275.165 162.476 273.071 161.042 270.627 161.042H248.519V174.038C248.519 177.996 252.888 178.489 252.888 178.489C252.888 178.489 263.067 179.635 265.685 179.985V196.67C263.204 195.966 257.987 194.938 257.987 194.938C257.987 194.938 257.987 188.318 257.987 187.857C257.987 187.103 257.326 186.398 256.503 186.218C254.141 185.8 248.519 184.946 248.519 184.946C248.519 184.946 248.506 195.143 248.519 198.671C257.993 200.641 266.925 203.334 275.165 206.668V181.343C275.165 176.332 270.54 175.565 270.54 175.565C270.54 175.565 266.557 174.898 257.999 174.244V165.405H265.685V168.759C265.685 170.485 267.486 170.641 267.486 170.641L275.171 171.651L275.165 171.663Z" fill="white"/>
<path d="M275.676 207.448L274.972 207.161C266.726 203.827 257.788 201.14 248.413 199.196L248.002 199.108V198.691C247.989 195.157 248.002 184.965 248.002 184.965V184.367L248.594 184.454C248.65 184.461 254.247 185.315 256.591 185.726C257.682 185.963 258.492 186.879 258.504 187.864C258.504 188.25 258.504 193.056 258.504 194.521C259.67 194.758 263.005 195.431 265.174 196.004V180.44C262.045 180.041 252.926 179.013 252.832 179C251.162 178.813 248.008 177.536 248.008 174.039V160.526H270.628C271.993 160.526 273.239 160.943 274.143 161.697C275.147 162.539 275.683 163.736 275.683 165.157V172.244L267.418 171.159C266.657 171.091 265.168 170.505 265.168 168.766V165.93H258.511V173.777C262.693 174.101 265.716 174.432 267.536 174.65C269.144 174.843 270.029 174.949 270.503 175.055H270.584C272.373 175.354 275.683 177.043 275.683 181.35V207.436L275.676 207.448ZM249.03 198.273C258.049 200.174 266.663 202.742 274.648 205.927V181.363C274.648 176.856 270.621 176.121 270.447 176.09L270.528 175.597L270.441 176.09C270.403 176.083 266.414 175.423 257.95 174.774L257.476 174.737V164.907H266.19V168.772C266.19 170.012 267.468 170.143 267.524 170.143L274.654 171.078V165.163C274.654 164.054 274.249 163.131 273.482 162.489C272.766 161.891 271.75 161.56 270.628 161.56H249.036V174.045C249.036 177.492 252.795 177.966 252.951 177.984C253.05 177.997 263.167 179.138 265.76 179.487L266.208 179.549V197.369L265.554 197.182C263.123 196.49 257.95 195.468 257.894 195.462L257.476 195.381V194.957C257.476 194.957 257.476 188.338 257.476 187.883C257.476 187.384 256.99 186.873 256.391 186.742C254.534 186.418 250.538 185.801 249.03 185.57C249.03 187.708 249.024 195.013 249.03 198.279V198.273Z" fill="url(#paint3_linear_1462_7492)"/>
<path d="M166.623 198.616L160.527 178.072L158.046 178.303L165.532 161.05H155.659L149.058 175.049V161.05H138.655V206.719C138.655 206.719 142.981 204.775 149.058 202.961V179.755L150.766 179.462L156.413 200.798C159.211 199.938 166.623 198.61 166.623 198.61V198.616Z" fill="white"/>
<path d="M138.144 207.518V160.54H149.575V172.757L155.335 160.54H166.318L158.863 177.712L160.895 177.519L167.277 199.023L166.71 199.122C166.635 199.135 159.299 200.45 156.563 201.292L156.052 201.447L150.392 180.049L149.575 180.186V203.342L149.208 203.454C143.236 205.237 138.911 207.169 138.867 207.188L138.144 207.512V207.518ZM139.172 161.562V205.941C140.619 205.331 144.109 203.922 148.547 202.582V179.32L151.146 178.877L156.775 200.157C159.355 199.44 164.286 198.518 165.962 198.206L160.153 178.616L157.23 178.89L164.753 161.562H155.989L148.547 177.344V161.562H139.172Z" fill="url(#paint4_linear_1462_7492)"/>
<path d="M179.667 161.049H169.969V197.899C169.969 197.899 173.902 197.039 179.667 196.472V161.049Z" fill="white"/>
<path d="M169.453 198.535V160.532H180.18V196.933L179.718 196.976C174.053 197.537 170.12 198.385 170.076 198.398L169.453 198.535ZM170.481 161.56V197.269C171.771 197.014 174.963 196.434 179.151 196.004V161.56H170.481Z" fill="url(#paint5_linear_1462_7492)"/>
<path d="M215.491 144.22L214.774 142.194H218.657V154.729H210.405C209.507 154.729 208.778 154 208.778 153.102V150.092H211.944V152.71H215.491V144.226V144.22ZM244.406 148.228C244.406 148.228 246.014 148.639 246.014 149.88V153.302C246.014 154.087 245.372 154.729 244.587 154.729H234.932L234.963 144.22L234.252 142.194H244.549C245.335 142.194 245.977 142.836 245.977 143.622V146.582C245.977 147.754 244.406 148.222 244.406 148.222M238.142 147.193H242.817V144.22H238.142V147.193ZM242.873 149.219H238.142V152.71H242.873V149.219ZM229.123 142.201L233.155 154.735H230.114L229.048 151.45H224.329L223.264 154.735H220.222L223.849 144.164L223.806 142.201H229.129H229.123ZM226.686 144.164L225.021 149.306H228.35L226.686 144.164ZM177.818 142.201C178.784 142.201 179.564 142.986 179.564 143.952V148.845C179.564 149.001 179.545 149.169 179.507 149.356C179.47 149.543 179.395 149.711 179.283 149.867C179.171 150.023 179.009 150.16 178.797 150.279C178.585 150.391 178.304 150.447 177.955 150.447H171.685V154.729H168.519V144.22L167.802 142.194H177.812M176.441 144.22H171.691V148.421H176.441V144.22ZM189.792 152.784H184.968V142.194H181.122L181.839 144.22V153.121C181.839 154.006 182.562 154.729 183.441 154.729H192.915V142.194H189.088L189.804 144.22L189.786 152.784H189.792ZM203.623 150.74L198.406 142.201H194.473L195.19 144.226V154.735H198.356V146.751L203.349 154.735H206.752V142.201H203.623V150.74Z" fill="url(#paint6_linear_1462_7492)"/>
<path d="M206.984 114.028C213.921 120.741 222.205 125.727 231.629 128.844C239.508 131.455 248.215 132.777 257.503 132.777C271.583 132.777 283.233 129.685 287.141 128.513V229.196C287.141 243.314 283.357 256.727 275.896 269.069C269.782 279.185 261.205 288.591 250.416 297.024C231.585 311.747 211.739 318.965 207.339 319.85C202.901 318.958 182.899 311.734 163.957 297.08C153.061 288.647 144.41 279.248 138.233 269.125C130.697 256.777 126.876 243.339 126.876 229.196V128.632C130.747 129.754 142.266 132.714 156.203 132.714C165.571 132.714 174.335 131.399 182.257 128.8C191.75 125.69 200.065 120.722 206.99 114.021M206.984 112.55C191.787 127.747 172.278 131.667 156.203 131.667C139.068 131.667 125.823 127.217 125.823 127.217V229.202C125.823 291.695 198.619 319.382 207.339 320.934C216.134 319.376 288.194 291.552 288.194 229.202V127.08C288.194 127.08 274.806 131.723 257.503 131.723C241.527 131.723 222.211 127.765 206.99 112.544L206.984 112.55Z" fill="#3F62AE"/>
<path d="M243.166 286.241C243.166 286.241 242.58 288.809 238.304 289.776C239.476 290.374 240.623 291.471 240.623 291.471C240.623 291.471 238.566 294.369 233.511 294.376C226.873 294.382 222.746 288.604 222.746 288.604C222.746 288.604 225.751 290.069 228.668 289.844C217.317 282.826 223.594 269.618 223.594 269.618C223.594 269.618 222.784 278.668 226.461 283.212C231.585 289.551 241.134 287.208 243.166 286.235V286.241ZM253.027 251.573C246.488 248.955 239.551 250.688 239.551 250.688C238.865 255.188 237.637 261.122 237.637 261.122C237.637 261.122 242.399 256.485 243.833 251.511L244.55 253.206C244.55 253.206 247.467 251.417 250.359 253.474L251.512 252.558C251.512 252.72 251.78 261.228 251.78 261.228C251.78 261.228 258.674 253.823 253.027 251.567V251.573ZM246.158 277.428C244.662 281.324 240.467 282.832 240.467 282.832L240.311 283.667C238.155 282.832 236.135 283.137 234.882 283.505C236.864 280.719 236.341 276.225 236.341 276.225C236.341 276.225 234.415 281.024 228.63 283.536C228.63 283.536 232.264 286.503 237.332 286.416C240.018 286.372 242.15 285.705 243.689 284.297C246.214 281.984 246.395 278.338 246.152 277.422L246.158 277.428ZM191.107 218.8C189.156 217.453 186.09 216.275 184.731 215.951C197.82 213.053 213.659 217.061 213.659 217.061C213.659 217.061 202.894 209.232 189.138 209.232C169.622 209.232 159.749 220.882 159.749 220.882C159.749 220.882 164.698 217.216 177.37 216.68C155.386 223.574 150.998 243.327 150.998 243.327C150.998 243.327 163.588 219.903 191.107 218.793V218.8ZM228.169 268.882C227.857 274.23 230.806 277.141 230.806 277.141C230.806 277.141 230.182 269.163 234.795 260.231C232.327 260.231 228.481 263.547 228.169 268.882ZM216.389 215.87C216.389 215.87 225.601 215.515 231.286 219.061C231.286 219.061 224.766 207.187 214.662 204.308C214.662 204.308 219.923 208.097 221.219 211.931C215.236 206.427 208.566 203.871 202.626 203.03C191.843 201.503 183.659 204.457 183.659 204.457C183.659 204.457 193.339 204.376 202.109 207.387C212.107 210.821 216.389 215.864 216.389 215.864V215.87ZM259.229 244.037C259.11 244.174 256.349 247.391 255.47 249.953L255.339 250.333L255.738 250.364C255.738 250.364 255.775 250.364 255.813 250.364C256.205 250.364 257.982 250.196 258.898 247.31L260.157 242.947L259.222 244.031L259.229 244.037ZM189.543 249.896C189.543 249.896 182.836 254.116 178.647 262.805C178.037 256.042 182.998 244.654 182.998 244.654C163.969 267.586 174.521 289.196 174.521 289.196C174.521 289.196 174.827 280.999 176.534 275.253C177.675 287.37 185.566 296.059 185.566 296.059C185.566 296.059 175.456 274 189.543 249.896ZM205.849 260.387C205.849 260.387 200.345 268.035 199.441 276.724C197.459 268.689 201.055 256.653 201.055 256.653C201.055 256.653 194.274 263.241 193.033 271.974C191.481 258.685 197.789 248.22 197.789 248.22C197.789 248.22 188.097 255.662 187.268 273.956C186.595 288.822 193.532 299.973 193.532 299.973C193.532 299.973 192.622 291.085 192.99 286.023C196.779 300.017 206.328 304.754 206.328 304.754C206.328 304.754 201.753 298.957 200.519 286.622C202.14 291.377 207.101 297.779 212.107 300.372C199.653 283.262 205.842 260.387 205.842 260.387H205.849ZM180.218 238.957L180.979 237.991C180.979 237.991 173.667 240.416 167.11 248.369C169.366 241.962 176.372 234.95 176.372 234.95C176.372 234.95 170.233 236.795 164.274 242.354C167.789 234.096 181.471 224.977 181.471 224.977C181.471 224.977 168.344 228.723 160.447 238.141C150.985 249.435 151.253 259.863 151.253 259.863C151.253 259.863 153.971 254.116 158.184 250.595C154.239 259.626 156.339 269.599 157.125 272.591L157.505 274.05L157.736 272.56C158.608 266.944 160.653 259.483 163.395 254.434C162.367 260.904 162.155 275.29 165.583 281.511L166.549 283.262L166.169 281.299C166.131 281.099 162.554 261.409 180.206 238.957H180.218ZM197.814 228.05C197.814 228.05 190.16 222.122 185.111 224.584C183.491 225.4 181.97 226.691 182.144 229.602C182.331 232.756 186.065 236.489 192.984 234.75C192.984 234.75 186.57 235.236 185.117 230.848C184.133 227.875 187.174 226.684 187.174 226.684C187.174 226.684 188.533 231.284 193.7 231.465C194.224 231.484 195.302 231.422 196.299 230.886C195.495 229.178 194.336 228.436 193.931 228.162C194.816 228.025 196.611 227.794 197.814 228.043V228.05ZM224.716 262.867L224.517 264.251L231.915 253.119C231.915 253.119 226.006 250.37 225.832 245.334C225.651 240.266 230.257 238.739 232.47 238.752C227.527 241.314 229.31 245.384 229.31 245.384C229.31 245.384 230.382 240.279 236.945 242.392C235.462 242.697 232.925 243.327 232.501 245.951C232.271 247.36 233.474 248.837 236.147 248.656C251.169 247.615 254.959 250.327 254.959 250.327C254.959 250.327 257.764 241.525 248.651 238.209C252.142 237.624 255.352 238.166 258.206 239.836L259.933 240.846L258.599 239.356C254.89 235.224 248.221 230.2 237.5 229.757L237.12 229.745L237.132 229.813C237.101 229.813 237.07 229.807 237.039 229.801C237.039 229.801 233.205 231.951 229.266 228.854C226.056 230.555 221.774 228.05 221.774 228.05C221.774 228.05 222.578 230.281 226.281 230.456C222.815 232.095 219.773 230.586 218.533 229.452C215.56 226.734 216.096 223.275 216.096 223.275C220.203 226.441 223.843 224.758 224.535 224.596C229.484 223.456 231.23 227.495 231.236 227.507C231.261 227.513 236.066 229.564 238.952 225.332C238.952 225.332 238.94 225.319 238.921 225.307H238.971L238.435 224.84C238.31 224.727 235.256 222.128 229.883 220.246C224.934 218.513 217.031 217.111 207.438 220.283H207.407C206.26 220.601 200.226 222.016 194.286 219.541L192.971 218.993L193.931 220.046C198.824 225.388 204.764 224.927 207.787 224.216C205.456 228.018 198.774 229.658 198.774 229.658C198.774 229.658 201.803 232.107 206.378 230.829C201.566 234.769 200.993 239.892 202.657 243.302C205.057 248.226 210.162 248.419 210.162 248.419C210.162 248.419 207.918 242.504 211.309 237.1C210.966 239.4 210.829 243.857 214.057 247.029C220.091 252.951 219.237 259.533 219 260.792L218.795 261.901L219.543 261.054C221.575 258.76 221.93 254.609 221.942 252.789C223.071 254.048 225.508 257.463 224.716 262.874V262.867Z" fill="url(#paint7_linear_1462_7492)"/>
<defs>
<linearGradient id="paint0_linear_1462_7492" x1="122.301" y1="216.107" x2="291.703" y2="216.107" gradientUnits="userSpaceOnUse">
<stop stop-color="#FFDBA7"/>
<stop offset="0.13" stop-color="#C3B297"/>
<stop offset="0.25" stop-color="#FFE7C5"/>
<stop offset="0.5" stop-color="#C19977"/>
<stop offset="0.64" stop-color="#FFE7C5"/>
<stop offset="1" stop-color="#C19977"/>
</linearGradient>
<linearGradient id="paint1_linear_1462_7492" x1="216.351" y1="193.498" x2="245.59" y2="164.259" gradientUnits="userSpaceOnUse">
<stop offset="0.06" stop-color="#FFDBA7"/>
<stop offset="0.5" stop-color="#C3B297"/>
<stop offset="1" stop-color="#FFDBA7"/>
</linearGradient>
<linearGradient id="paint2_linear_1462_7492" x1="181.881" y1="194.327" x2="214.018" y2="162.183" gradientUnits="userSpaceOnUse">
<stop offset="0.06" stop-color="#FFDBA7"/>
<stop offset="0.5" stop-color="#C3B297"/>
<stop offset="1" stop-color="#FFDBA7"/>
</linearGradient>
<linearGradient id="paint3_linear_1462_7492" x1="247.366" y1="198.466" x2="279.148" y2="166.684" gradientUnits="userSpaceOnUse">
<stop offset="0.06" stop-color="#FFDBA7"/>
<stop offset="0.5" stop-color="#C3B297"/>
<stop offset="1" stop-color="#FFDBA7"/>
</linearGradient>
<linearGradient id="paint4_linear_1462_7492" x1="131.556" y1="200.93" x2="169.135" y2="163.351" gradientUnits="userSpaceOnUse">
<stop offset="0.06" stop-color="#FFDBA7"/>
<stop offset="0.5" stop-color="#C3B297"/>
<stop offset="1" stop-color="#FFDBA7"/>
</linearGradient>
<linearGradient id="paint5_linear_1462_7492" x1="162.235" y1="191.317" x2="186.6" y2="166.952" gradientUnits="userSpaceOnUse">
<stop offset="0.06" stop-color="#FFDBA7"/>
<stop offset="0.5" stop-color="#C3B297"/>
<stop offset="1" stop-color="#FFDBA7"/>
</linearGradient>
<linearGradient id="paint6_linear_1462_7492" x1="167.808" y1="148.465" x2="246.021" y2="148.465" gradientUnits="userSpaceOnUse">
<stop stop-color="#FFDBA7"/>
<stop offset="0.13" stop-color="#C3B297"/>
<stop offset="0.25" stop-color="#FFE7C5"/>
<stop offset="0.5" stop-color="#C19977"/>
<stop offset="0.64" stop-color="#FFE7C5"/>
<stop offset="1" stop-color="#C19977"/>
</linearGradient>
<linearGradient id="paint7_linear_1462_7492" x1="150.991" y1="253.674" x2="260.163" y2="253.674" gradientUnits="userSpaceOnUse">
<stop stop-color="#FFDBA7"/>
<stop offset="0.13" stop-color="#C3B297"/>
<stop offset="0.25" stop-color="#FFE7C5"/>
<stop offset="0.5" stop-color="#C19977"/>
<stop offset="0.64" stop-color="#FFE7C5"/>
<stop offset="1" stop-color="#C19977"/>
</linearGradient>
</defs>
</svg>
