<svg width="24" height="24" viewBox="0 0 24 24" fill="none" xmlns="http://www.w3.org/2000/svg">
<g clip-path="url(#clip0_4344_19064)">
<path fill-rule="evenodd" clip-rule="evenodd" d="M12 24C18.6274 24 24 18.6274 24 12C24 5.37258 18.6274 0 12 0C5.37258 0 0 5.37258 0 12C0 18.6274 5.37258 24 12 24ZM18.9997 11.6464C18.9996 11.7641 18.9995 11.882 18.9995 12C18.9995 12.1319 18.9997 12.2637 18.9999 12.3954C19.0011 13.2283 19.0023 14.0563 18.954 14.8895C18.8997 16.0102 18.6457 17.0031 17.8244 17.8244C17.0049 18.644 16.0102 18.8997 14.8895 18.9539C14.0423 19.0016 13.2006 19.0007 12.3536 18.9997C12.2358 18.9996 12.118 18.9995 12 18.9995C11.8823 18.9995 11.7646 18.9996 11.6471 18.9997C10.8012 19.0007 9.95925 19.0016 9.11055 18.9539C7.98979 18.8997 6.99687 18.6457 6.17556 17.8244C5.35601 17.0049 5.10034 16.0102 5.04605 14.8895C4.99839 14.0423 4.99932 13.1992 5.00026 12.353C5.00039 12.2354 5.00052 12.1177 5.00052 12C5.00052 11.8823 5.00039 11.7646 5.00026 11.647C4.99932 10.8012 4.99839 9.95924 5.04605 9.11055C5.10034 7.98979 5.35426 6.99687 6.17556 6.17556C6.99512 5.35601 7.98979 5.10034 9.11055 5.04605C9.95768 4.99839 10.7994 4.99932 11.6464 5.00026C11.7642 5.00039 11.882 5.00052 12 5.00052C12.1177 5.00052 12.2354 5.00039 12.3529 5.00026C13.1988 4.99932 14.0408 4.99839 14.8895 5.04605C16.0102 5.10034 17.0031 5.35426 17.8244 6.17556C18.644 6.99512 18.8997 7.98979 18.954 9.11055C19.0016 9.95767 19.0007 10.7994 18.9997 11.6464ZM8.40657 12C8.40657 13.9876 10.0107 15.5917 11.9982 15.5917C13.9858 15.5917 15.5899 13.9876 15.5899 12C15.5899 10.0124 13.9858 8.40832 11.9982 8.40832C10.0107 8.40832 8.40657 10.0124 8.40657 12ZM14.8982 8.26122C14.8982 8.72529 15.273 9.10004 15.737 9.10004C15.8472 9.10018 15.9564 9.07858 16.0582 9.03647C16.16 8.99437 16.2525 8.93258 16.3305 8.85466C16.4084 8.77675 16.4702 8.68422 16.5123 8.58239C16.5544 8.48056 16.576 8.37142 16.5758 8.26122C16.5758 7.79716 16.2011 7.42241 15.737 7.42241C15.273 7.42241 14.8982 7.79716 14.8982 8.26122Z" fill="white"/>
</g>
<defs>
<clipPath id="clip0_4344_19064">
<rect width="24" height="24" fill="white"/>
</clipPath>
</defs>
</svg>
