<svg width="24" height="24" viewBox="0 0 24 24" fill="none" xmlns="http://www.w3.org/2000/svg">
<path fill-rule="evenodd" clip-rule="evenodd" d="M12 24C18.6274 24 24 18.6274 24 12C24 5.37258 18.6274 0 12 0C5.37258 0 0 5.37258 0 12C0 18.6274 5.37258 24 12 24ZM17.6107 6L13.143 11.0817L18 18H14.4265L11.1546 13.3403L7.05857 18H6L10.6852 12.6715L6 6H9.5735L12.6711 10.4115L16.5522 6H17.6107ZM11.2172 12.0653L11.6926 12.7301L14.9255 17.2572H16.5517L12.5889 11.7119L12.1155 11.0472L9.06651 6.78088H7.44032L11.2172 12.0653Z" fill="white"/>
</svg>
